<?xml version="1.0" encoding="utf-8"?>
<!-- Generator: Adobe Illustrator 24.0.0, SVG Export Plug-In . SVG Version: 6.00 Build 0)  -->
<svg version="1.1" id="OBJECTS" xmlns="http://www.w3.org/2000/svg" xmlns:xlink="http://www.w3.org/1999/xlink" x="0px" y="0px"
	 viewBox="0 0 272.51 374.72" style="enable-background:new 0 0 272.51 374.72;" xml:space="preserve">
<style type="text/css">
	.st0{fill:#FFFFFF;}
</style>
<g>
	<path d="M75.13,157.85c-4.58,15.84-11.38,39.48-46.57,18.2c-7.92-4.79-18.8-15.73-24.69-29.26c-5.89-13.53-5.04-39.5,2.43-43.23
		c7.47-3.73,13.19,10.58,24.07,16.89c7.81,4.53,15.44,4.12,19.87,4.06C60.83,124.37,79.71,142.01,75.13,157.85z"/>
	<path d="M247.27,106.13c0.55-3.29-21.47-21.03-29.29-27.2c-0.55-1.39-1.12-2.77-1.7-4.13c-21.21-49-89.32-56-103.83-61
		s-24.56-17-36.84-13s-16.65,19-20,37c-3.05,16.41-2.54,34.83-1,51c2.67,28.06,2.19,39.04,0,67c-2.08,26.48,3.18,63.52,18.76,87
		c11.1,16.73,29.24,37,39.24,46c9.96,8.97,40.25,29.37,48.9,29.99c-5.71,15.16,3.38,42.87,12.5,51.24
		c9.55,8.76,11.78,5.66,17.13-12.86s-1.54-29.31-1.54-29.31s5.44,6.07,17.11,7.46c11.67,1.39,25.02-4.28,26.69-11.34
		c1.67-7.06-7.33-17.71-17.33-21.08c-7.49-2.52-24.78-3.35-32.22-3.23c-3.45-19.03,12.33-46.83,26.85-66.87
		c19.75-27.24,24.94-75.67,17.11-118.85C236.74,113.41,246.8,108.95,247.27,106.13z"/>
	<path class="st0" d="M163.6,189.8c8-38,4-68-11-90c-15-22-38.67-67.33-74-52c-22.17,9.62-16.42,50.8-18.58,60.14
		c0.91,16.36,0.23,27.8-1.42,48.87c-2.08,26.48,3.18,63.52,18.76,87c11.1,16.73,29.24,37,39.24,46c0.31,0.28,0.65,0.57,1,0.88
		c20.34,16.45,39.55,27.79,48.34,18.45C176.6,297.8,155.6,227.8,163.6,189.8z"/>
	<path class="st0" d="M174.47,79.04c-8.31,8.7-22.11,9.01-30.81,0.7c-8.7-8.31-9.02-22.11-0.7-30.81c8.31-8.7,22.11-9.02,30.81-0.7
		C182.47,56.54,182.79,70.34,174.47,79.04z"/>
	<path d="M167.24,76.33c-5.99,6.27-15.94,6.5-22.21,0.5c-6.27-6-6.5-15.94-0.51-22.21c5.99-6.28,15.94-6.5,22.21-0.51
		S173.24,70.06,167.24,76.33z"/>
	<path class="st0" d="M171,68c-2.32,2.43-6.17,2.52-8.6,0.2c-2.43-2.32-2.52-6.17-0.2-8.6c2.32-2.43,6.17-2.52,8.6-0.2
		C173.23,61.73,173.32,65.58,171,68z"/>
	<path class="st0" d="M165.6,102.19c3.25,0.7,6.29,1.12,9.11,0.95c2.82-0.16,5.29-0.98,7.43-2.44c2.16-1.46,4-3.6,5.73-6.01
		c1.72-2.44,3.25-5.16,5.1-7.96c0.24,3.34-0.28,6.66-1.49,9.86c-1.26,3.15-3.29,6.28-6.42,8.4c-1.55,1.04-3.33,1.81-5.17,2.18
		c-1.84,0.37-3.72,0.35-5.47,0.02C170.89,106.49,167.78,104.75,165.6,102.19z"/>
	<path class="st0" d="M173.49,111.63c2.52,0.47,4.84,0.74,6.98,0.59c2.14-0.15,3.96-0.78,5.57-1.87c1.61-1.09,3.02-2.7,4.36-4.52
		c1.33-1.84,2.54-3.9,4.02-6.02c0.26,2.57-0.11,5.13-1.02,7.61c-0.95,2.43-2.51,4.86-4.94,6.5c-1.21,0.81-2.59,1.4-4.02,1.68
		c-1.43,0.28-2.88,0.26-4.24-0.01C177.5,115.03,175.12,113.65,173.49,111.63z"/>
	<path class="st0" d="M182.01,120.31c2,0.11,3.82,0.09,5.46-0.22c1.64-0.31,3.02-0.93,4.22-1.86c1.19-0.95,2.16-2.28,3.14-3.72
		c0.43-0.77,0.88-1.55,1.37-2.35c0.43-0.83,0.86-1.68,1.44-2.53c0.17,0.99,0.18,1.98,0.19,2.99c-0.09,0.99-0.28,1.99-0.52,2.99
		c-0.66,1.94-1.7,3.91-3.49,5.34c-1.78,1.41-4.14,2.06-6.28,1.86C185.43,122.59,183.46,121.73,182.01,120.31z"/>
	<path d="M61.31,96.86c0,0,14.74,14.27,34.9,5.64c20.16-8.63,22.33-17.59,22.33-17.59s23.34,36.43-3.97,52.94
		C87.26,154.34,61.31,96.86,61.31,96.86z"/>
	<path d="M61.31,96.86l-0.35,0.36c0.04,0.04,8.82,8.54,22.2,8.55c4.04,0,8.5-0.78,13.25-2.81c20.26-8.67,22.58-17.77,22.62-17.94
		l-0.49-0.12l-0.42,0.27c0,0,0.03,0.05,0.1,0.16c1,1.61,9.12,15.19,9.11,28.92c0,4.28-0.78,8.58-2.8,12.54
		c-2.01,3.96-5.25,7.61-10.22,10.62c-3.36,2.03-6.67,2.9-9.91,2.9c-5.65,0-11.15-2.68-16.23-6.76
		c-7.62-6.12-14.24-15.35-18.93-23.05c-2.35-3.85-4.22-7.32-5.5-9.82c-0.64-1.25-1.14-2.26-1.47-2.96c-0.33-0.7-0.5-1.08-0.5-1.08
		L61.31,96.86l-0.35,0.36L61.31,96.86l-0.46,0.21c0.01,0.02,4.98,11.03,12.88,22.07c3.95,5.52,8.63,11.05,13.82,15.21
		c5.18,4.16,10.88,6.98,16.85,6.98c3.43,0,6.93-0.93,10.43-3.05c5.11-3.09,8.5-6.89,10.6-11.02c2.1-4.13,2.9-8.59,2.9-12.99
		c-0.01-15.05-9.35-29.58-9.37-29.62l-0.63-0.99l-0.28,1.14l0.05,0.01l-0.05-0.01l0,0l0.05,0.01l-0.05-0.01
		c-0.04,0.11-2.29,8.79-22.04,17.25c-4.62,1.98-8.94,2.73-12.85,2.73c-6.47,0-11.85-2.07-15.62-4.15c-1.88-1.04-3.36-2.07-4.36-2.85
		c-0.5-0.39-0.88-0.71-1.14-0.93c-0.13-0.11-0.22-0.2-0.29-0.26l-0.09-0.09l-1.88-1.82l1.08,2.39L61.31,96.86z"/>
	<path class="st0" d="M133.96,122.61c-8.99-9.57-25.58-8.58-37.07,2.2c-10.47,9.84-13.07,24.42-6.63,34.17
		c14-5.43,33.47-14.2,48.94-25.84C138.48,129.22,136.75,125.58,133.96,122.61z"/>
	<path class="st0" d="M116.09,85.9c0,0,7.33,13.61,2.79,16.73c-4.55,3.12-15.24-6.33-15.24-6.33L116.09,85.9z"/>
	<path class="st0" d="M104.37,95.54c0,0,3.8,13.03-1.43,15.04c-5.24,2.01-12.82-9.67-12.82-9.67L104.37,95.54z"/>
	<path class="st0" d="M93.17,100.56c0,0-0.54,12.37-5.64,12.89c-5.09,0.52-8.2-11.57-8.2-11.57L93.17,100.56z"/>
	<path class="st0" d="M81.09,100.11c0,0-0.73,11.56-5.09,11.85c-4.36,0.29-6.75-11.16-6.75-11.16L81.09,100.11z"/>
	<path d="M104.34,149.29c2.49,0.16,4.8,0.31,7.03,0.27c2.22-0.04,4.33-0.29,6.19-0.95c1.88-0.63,3.47-1.72,4.89-3.28
		c1.4-1.57,2.57-3.55,3.82-5.72c0.37,2.48-0.03,5.07-1.24,7.47c-0.63,1.18-1.49,2.28-2.55,3.2c-1.06,0.92-2.32,1.6-3.62,2.06
		c-2.63,0.91-5.38,0.87-7.85,0.29C108.54,152.03,106.22,150.96,104.34,149.29z"/>
	<path class="st0" d="M96.78,31.38c-0.31-0.39-0.75-0.64-1.16-0.9c-0.31-0.23-0.66-0.39-1.04-0.49c-0.18-0.04-0.55-0.09-0.83-0.13
		c-0.16-0.03-0.31-0.07-0.46-0.11l-0.08-0.04l-0.02-0.01l-0.07-0.07c-1.43-1.32-3.63-1.41-5.04,0c-1.36,1.36-1.39,3.68,0,5.04
		c2.11,2.06,6.41,3.66,8.7,0.9C97.9,34.2,97.85,32.73,96.78,31.38z"/>
	<path class="st0" d="M66.38,34.81c-1.21-0.46-2.47-0.24-3.5,0.29C62,35.56,61.46,36.12,61,36.78c-0.59,0.85-1.22,1.81-0.63,2.74
		c0.78,1.22,2.51,1.73,4.41,1.15c0.17-0.05,0.35-0.1,0.52-0.16c0.99-0.3,1.41-1.03,1.3-1.72l0.07-0.09
		c0.28-0.37,0.69-0.73,0.85-1.13c0.15-0.38,0.22-0.77,0.29-1.16C67.92,35.79,67.18,35.12,66.38,34.81z"/>
	<path d="M197.37,153.85c4.58,15.84,11.38,39.48,46.57,18.2c7.92-4.79,18.8-15.73,24.7-29.26c5.89-13.53,5.04-39.5-2.43-43.23
		c-7.47-3.73-13.19,10.58-24.07,16.89c-7.81,4.53-15.44,4.12-19.87,4.06C211.68,120.37,192.79,138.01,197.37,153.85z"/>
	<path d="M61.31,96.86l-0.35,0.36c0.04,0.04,8.82,8.54,22.2,8.55c4.04,0,8.5-0.78,13.25-2.81c20.26-8.67,22.58-17.77,22.62-17.94
		l-0.49-0.12l-0.42,0.27c0,0,0.03,0.05,0.1,0.16c1,1.61,9.12,15.19,9.11,28.92c0,4.28-0.78,8.58-2.8,12.54
		c-2.01,3.96-5.25,7.61-10.22,10.62c-3.36,2.03-6.67,2.9-9.91,2.9c-5.65,0-11.15-2.68-16.23-6.76
		c-7.62-6.12-14.24-15.35-18.93-23.05c-2.35-3.85-4.22-7.32-5.5-9.82c-0.64-1.25-1.14-2.26-1.47-2.96c-0.33-0.7-0.5-1.08-0.5-1.08
		L61.31,96.86l-0.35,0.36L61.31,96.86l-0.46,0.21c0.01,0.02,4.98,11.03,12.88,22.07c3.95,5.52,8.63,11.05,13.82,15.21
		c5.18,4.16,10.88,6.98,16.85,6.98c3.43,0,6.93-0.93,10.43-3.05c5.11-3.09,8.5-6.89,10.6-11.02c2.1-4.13,2.9-8.59,2.9-12.99
		c-0.01-15.05-9.35-29.58-9.37-29.62l-0.63-0.99l-0.28,1.14l0.05,0.01l-0.05-0.01l0,0l0.05,0.01l-0.05-0.01
		c-0.04,0.11-2.29,8.79-22.04,17.25c-4.62,1.98-8.94,2.73-12.85,2.73c-6.47,0-11.85-2.07-15.62-4.15c-1.88-1.04-3.36-2.07-4.36-2.85
		c-0.5-0.39-0.88-0.71-1.14-0.93c-0.13-0.11-0.22-0.2-0.29-0.26l-0.09-0.09l-1.88-1.82l1.08,2.39L61.31,96.86z"/>
</g>
</svg>
