<?xml version="1.0" encoding="UTF-8" standalone="no"?>
<!-- Created with Inkscape (http://www.inkscape.org/) -->

<svg
   version="1.1"
   id="svg13734"
   width="800"
   height="800"
   viewBox="0 0 800 800"
   sodipodi:docname="crow-1-clipart-publicdomainvectors.org.svg"
   inkscape:version="1.2 (dc2aedaf03, 2022-05-15)"
   xmlns:inkscape="http://www.inkscape.org/namespaces/inkscape"
   xmlns:sodipodi="http://sodipodi.sourceforge.net/DTD/sodipodi-0.dtd"
   xmlns="http://www.w3.org/2000/svg"
   xmlns:svg="http://www.w3.org/2000/svg">
  <defs
     id="defs13738">
    <clipPath
       clipPathUnits="userSpaceOnUse"
       id="clipPath13750">
      <path
         d="M 0,600 H 600 V 0 H 0 Z"
         id="path13748" />
    </clipPath>
  </defs>
  <sodipodi:namedview
     id="namedview13736"
     pagecolor="#ffffff"
     bordercolor="#000000"
     borderopacity="0.25"
     inkscape:showpageshadow="2"
     inkscape:pageopacity="0.0"
     inkscape:pagecheckerboard="0"
     inkscape:deskcolor="#d1d1d1"
     showgrid="false"
     inkscape:zoom="1.04625"
     inkscape:cx="400"
     inkscape:cy="400.4779"
     inkscape:window-width="1920"
     inkscape:window-height="1017"
     inkscape:window-x="-8"
     inkscape:window-y="-8"
     inkscape:window-maximized="1"
     inkscape:current-layer="g13742">
    <inkscape:page
       x="0"
       y="0"
       id="page13740"
       width="800"
       height="800" />
  </sodipodi:namedview>
  <g
     id="g13742"
     inkscape:groupmode="layer"
     inkscape:label="Page 1"
     transform="matrix(1.3333333,0,0,-1.3333333,0,800)">
    <g
       id="g13744">
      <g
         id="g13746"
         clip-path="url(#clipPath13750)">
        <g
           id="g13752"
           transform="translate(493.3174,281.0723)">
          <path
             d="m 0,0 c 0,-104.335 -84.58,-188.916 -188.915,-188.916 -104.336,0 -188.916,84.581 -188.916,188.916 0,104.335 84.58,188.916 188.916,188.916 C -84.58,188.916 0,104.335 0,0"
             style="fill:#f5f015;fill-opacity:1;fill-rule:nonzero;stroke:none"
             id="path13754" />
        </g>
        <g
           id="g13756"
           transform="translate(331.5713,236.3418)">
          <path
             d="M 0,0 2.995,-0.357 3.004,0.229 0.799,0.061 0.689,0.053 Z m 16.729,1.436 -5.839,-0.555 0.03,-1.885 5.917,-0.219 z m 7.75,0.898 0.269,-3.534 5.938,0.24 -0.43,4.114 z M 37.914,4.4 38.59,-0.273 c 1.953,0.249 3.914,0.463 5.867,0.74 L 44.501,0.473 44.5,0.477 43.612,5.516 C 41.709,5.176 39.816,4.77 37.914,4.4 m 13.242,2.795 1.02,-4.594 0.166,-0.749 3.709,0.804 2.135,0.463 -0.335,1.298 -1.101,4.256 z m 18.437,5.513 -5.462,-1.842 1.159,-3.727 0.6,-1.924 3.967,1.298 1.727,0.565 -0.635,1.793 -0.185,0.529 z m 13.542,2.702 -1.076,2.314 -5.287,-2.279 1.135,-2.736 1.142,-2.748 3.68,1.652 0.685,0.308 1.113,0.499 z m 5.806,5.694 0.971,-1.8 1.745,-3.234 2.656,1.59 2.501,1.498 -1.965,3.277 -0.844,1.402 z m 11.607,6.742 0.646,-0.935 2.258,-3.266 c 0.248,0.188 0.492,0.382 0.738,0.573 1.339,1.034 2.664,2.086 3.994,3.124 l -2.413,3.144 -0.452,0.586 c -1.591,-1.078 -3.198,-2.132 -4.771,-3.226 m 10.887,7.891 0.184,-0.207 2.548,-2.88 1.261,1.301 2.909,3.004 -2.48,2.509 -0.694,-0.585 z m 12.026,7.326 1.195,1.683 2.258,3.18 -1.493,1.134 -3.009,-3.238 -0.952,-1.026 z m 7.385,11.746 c 0.262,0.58 0.517,1.158 0.774,1.736 0.151,0.34 0.31,0.68 0.455,1.019 l -0.666,-0.944 -1.063,-1.509 z M 5.16,-94.632 5.296,-94.707 c 0.334,0.965 0.687,1.914 0.995,2.878 -0.448,-0.584 -0.873,-1.173 -1.299,-1.76 -0.163,-0.226 -0.326,-0.453 -0.491,-0.677 z m -9.658,-9.52 2.54,-2.497 0.132,-0.13 c 1.319,1.56 2.516,3.205 3.559,4.929 l -2.155,1.634 c -0.537,-0.565 -1.084,-1.114 -1.634,-1.658 -0.796,-0.787 -1.603,-1.556 -2.442,-2.278 m -10.837,-6.646 2.096,-4.892 c 1.09,0.512 2.138,1.092 3.151,1.721 0.777,0.482 1.534,0.989 2.261,1.531 l -1.917,2.878 -0.729,1.095 c -1.573,-0.912 -3.196,-1.701 -4.862,-2.333 m -12.051,-1.7 -0.485,-5.936 c 2.155,-0.175 4.332,-0.072 6.465,0.243 l -0.759,5.741 c -1.735,-0.197 -3.483,-0.191 -5.221,-0.048 m -14.586,-1.274 c 1.15,-0.694 2.342,-1.332 3.574,-1.899 0.705,-0.325 1.418,-0.634 2.15,-0.902 l 2.045,5.59 c -1.65,0.603 -3.277,1.318 -4.836,2.195 -0.004,0.002 -0.008,0.004 -0.013,0.007 z m -10.711,9.749 c 1.252,-1.623 2.623,-3.168 4.117,-4.609 l 1.861,2.068 1.686,1.879 c -0.563,0.467 -1.11,0.959 -1.654,1.455 -0.819,0.745 -1.627,1.509 -2.405,2.312 z m -4.567,13.517 -2.389,-1.236 c 0.804,-1.826 1.668,-3.641 2.542,-5.462 l 3.144,2.008 c -1.072,1.561 -2.154,3.131 -3.297,4.69 m -4.826,6.333 0.842,0.329 c -0.488,0.878 -0.954,1.769 -1.465,2.649 0.184,-0.996 0.414,-1.98 0.623,-2.978 m 1.135,83.816 2.963,0.353 0.033,0.004 -0.035,0.002 -2.969,0.227 z m -7.924,-0.647 0.03,1.885 -5.839,0.555 -0.109,-2.659 z m -19.336,4.158 -0.431,-4.114 5.939,-0.24 0.27,3.534 z m -8.334,-3.427 0.674,4.673 c -1.901,0.37 -3.795,0.776 -5.697,1.116 l -0.78,-4.423 -0.109,-0.62 c 0.267,-0.038 0.537,-0.068 0.803,-0.104 1.43,-0.192 2.863,-0.366 4.292,-0.541 0.036,-0.005 0.073,-0.009 0.108,-0.014 0.236,-0.028 0.473,-0.056 0.709,-0.087 m -13.428,3.587 0.861,3.881 -5.593,1.478 -0.898,-3.471 -0.539,-2.083 1.296,-0.281 3.131,-0.679 1.418,-0.307 z m -12.998,4.706 0.885,2.846 -5.463,1.842 -0.836,-2.366 -1.154,-3.264 1.972,-0.646 1.873,-0.613 1.85,-0.604 z m -12.465,5.717 0.709,1.708 -5.286,2.279 -0.575,-1.236 -1.896,-4.068 3.066,-1.376 0.662,-0.296 1.752,-0.787 z m -19.204,5.343 4.068,-2.435 0.96,-0.575 2.36,4.376 0.355,0.658 -5.064,2.733 -0.123,-0.205 -2.687,-4.474 z m -3.864,8.766 c -1.573,1.094 -3.178,2.148 -4.772,3.226 l -2.863,-3.73 c 1.574,-1.23 3.136,-2.484 4.731,-3.697 z m -15.31,11.618 -2.48,-2.509 3.923,-4.05 0.247,-0.255 1.042,1.177 1.691,1.91 z m -8.148,4.366 0.545,-0.767 2.001,1.733 -0.193,0.208 -3.759,4.046 -0.009,0.01 -0.099,-0.076 -1.394,-1.058 z m -7.277,11.961 c 0.147,-0.328 0.289,-0.655 0.438,-0.982 l 0.499,0.302 -0.57,0.809 -1.159,1.644 c 0.255,-0.591 0.525,-1.183 0.792,-1.773 m 156.262,78.136 c 0.921,-0.566 1.826,-1.124 2.85,-1.597 0.127,-0.06 0.267,-0.115 0.416,-0.169 0.098,-0.025 0.144,-0.052 0.287,-0.07 0.162,-0.023 0.275,-0.003 0.367,0.02 0.36,0.093 0.592,0.215 0.856,0.336 0.498,0.257 0.963,0.531 1.427,0.814 0.928,0.557 1.81,1.174 2.696,1.783 0.457,0.332 0.903,0.676 1.355,1.015 1.269,0.946 2.522,1.912 3.71,2.964 -1.354,-0.752 -2.674,-1.548 -3.99,-2.347 -0.513,-0.31 -1.026,-0.622 -1.54,-0.927 l -2.73,-1.654 c -0.455,-0.266 -0.916,-0.527 -1.374,-0.753 -0.218,-0.108 -0.468,-0.227 -0.628,-0.267 0.033,-0.041 -0.235,0.047 -0.459,0.15 -1.859,0.882 -3.714,2.02 -5.571,3.054 -0.454,0.263 -0.91,0.524 -1.365,0.785 -1.4,0.807 -2.803,1.608 -4.227,2.381 1.304,-1.016 2.647,-1.977 4.004,-2.916 0.406,-0.28 0.807,-0.569 1.218,-0.844 0.888,-0.602 1.779,-1.201 2.698,-1.758 m -8.099,-18.171 c 0.979,0 1.791,-1.233 1.963,-2.86 0.052,0.315 0.089,0.642 0.089,0.986 0,1.932 -0.894,3.5 -2,3.5 -1.103,0 -2,-1.568 -2,-3.5 0,-0.219 0.016,-0.431 0.037,-0.639 0.247,1.448 1.002,2.513 1.911,2.513 m 23.001,0 c 0.978,0 1.791,-1.233 1.962,-2.86 0.052,0.315 0.089,0.642 0.089,0.986 0,1.932 -0.894,3.5 -2,3.5 -1.104,0 -2,-1.568 -2,-3.5 0,-0.219 0.016,-0.431 0.037,-0.639 0.247,1.448 1.002,2.513 1.912,2.513 M 43.947,24.392 c 0.293,-1.273 0.532,-2.548 0.574,-3.806 0.009,-0.74 -0.043,-1.488 -0.306,-2.119 -0.238,-0.638 -0.716,-1.102 -1.34,-1.197 -0.619,-0.118 -1.332,0.058 -1.973,0.374 -0.653,0.305 -1.253,0.75 -1.819,1.235 -1.124,0.992 -2.066,2.213 -2.894,3.529 0.523,-1.462 1.303,-2.871 2.424,-4.019 0.551,-0.582 1.196,-1.086 1.921,-1.482 0.725,-0.38 1.59,-0.642 2.503,-0.49 0.931,0.144 1.695,0.941 1.945,1.757 0.282,0.824 0.303,1.66 0.212,2.455 -0.146,1.354 -0.577,2.622 -1.117,3.827 -0.098,0.218 -0.19,0.438 -0.296,0.651 0.058,-0.238 0.112,-0.477 0.166,-0.715 m 6.855,-5.408 c 0.93,0.146 1.695,0.941 1.945,1.758 0.28,0.824 0.303,1.66 0.212,2.455 -0.144,1.33 -0.562,2.577 -1.088,3.763 -0.105,0.24 -0.211,0.48 -0.325,0.715 0.058,-0.239 0.111,-0.475 0.166,-0.713 0.293,-1.273 0.531,-2.549 0.572,-3.808 0.011,-0.741 -0.043,-1.488 -0.305,-2.119 -0.239,-0.639 -0.714,-1.102 -1.338,-1.197 -0.619,-0.118 -1.332,0.058 -1.974,0.374 -0.653,0.305 -1.253,0.749 -1.818,1.235 -0.997,0.88 -1.847,1.945 -2.605,3.092 -0.097,0.146 -0.197,0.288 -0.29,0.437 0.058,-0.165 0.132,-0.322 0.196,-0.483 0.517,-1.287 1.232,-2.517 2.228,-3.536 0.552,-0.582 1.194,-1.086 1.921,-1.482 0.724,-0.38 1.591,-0.642 2.503,-0.491 m 1.133,7.976 c 0.515,-1.291 1.232,-2.525 2.231,-3.547 0.551,-0.582 1.194,-1.086 1.921,-1.482 0.726,-0.38 1.59,-0.642 2.503,-0.491 0.932,0.146 1.695,0.941 1.945,1.758 0.28,0.823 0.302,1.66 0.212,2.455 -0.173,1.598 -0.731,3.083 -1.413,4.478 0.367,-1.509 0.69,-3.028 0.738,-4.521 0.01,-0.741 -0.043,-1.488 -0.304,-2.12 -0.24,-0.638 -0.716,-1.101 -1.34,-1.196 -0.618,-0.118 -1.331,0.058 -1.973,0.374 -0.654,0.304 -1.254,0.749 -1.82,1.235 -0.987,0.871 -1.826,1.923 -2.578,3.056 -0.106,0.158 -0.214,0.312 -0.315,0.473 0.057,-0.161 0.129,-0.314 0.193,-0.472 m 12.286,-1.725 c -0.656,0.305 -1.255,0.75 -1.822,1.236 -1.123,0.991 -2.066,2.212 -2.892,3.529 0.521,-1.463 1.303,-2.872 2.425,-4.021 0.549,-0.581 1.192,-1.084 1.921,-1.48 0.723,-0.38 1.588,-0.642 2.501,-0.491 0.931,0.145 1.696,0.941 1.946,1.758 0.28,0.823 0.303,1.659 0.212,2.455 -0.173,1.598 -0.733,3.083 -1.412,4.477 0.366,-1.508 0.688,-3.027 0.737,-4.52 0.011,-0.742 -0.043,-1.489 -0.305,-2.12 -0.239,-0.638 -0.716,-1.101 -1.34,-1.196 -0.619,-0.118 -1.333,0.057 -1.971,0.373 m 6.142,4.945 c 0.701,-0.373 1.47,-0.638 2.284,-0.764 0.806,-0.091 1.707,-0.058 2.493,0.417 0.799,0.456 1.257,1.4 1.282,2.242 0.042,0.856 -0.157,1.66 -0.46,2.393 -0.596,1.476 -1.547,2.727 -2.588,3.854 0.773,-1.326 1.504,-2.676 1.95,-4.08 0.209,-0.701 0.358,-1.424 0.28,-2.097 -0.058,-0.672 -0.367,-1.265 -0.915,-1.569 -1.119,-0.654 -2.713,-0.333 -4.037,0.218 -1.361,0.573 -2.614,1.443 -3.777,2.446 0.914,-1.231 2.071,-2.335 3.488,-3.06 m 3.212,8.073 c 0.914,-1.232 2.072,-2.335 3.489,-3.06 0.702,-0.373 1.469,-0.637 2.283,-0.764 0.806,-0.091 1.706,-0.058 2.492,0.417 0.8,0.456 1.258,1.401 1.283,2.242 0.042,0.856 -0.158,1.66 -0.46,2.391 -0.597,1.478 -1.547,2.729 -2.588,3.856 0.775,-1.326 1.504,-2.675 1.95,-4.08 0.209,-0.701 0.357,-1.424 0.281,-2.097 -0.059,-0.672 -0.366,-1.264 -0.916,-1.569 -1.117,-0.654 -2.714,-0.333 -4.035,0.218 -1.363,0.573 -2.616,1.443 -3.779,2.446 m 10.241,1.854 c 0.702,-0.373 1.47,-0.637 2.284,-0.764 0.806,-0.091 1.707,-0.057 2.492,0.417 0.8,0.456 1.259,1.401 1.283,2.242 0.042,0.856 -0.158,1.66 -0.46,2.393 -0.597,1.477 -1.547,2.728 -2.588,3.855 0.775,-1.326 1.504,-2.675 1.95,-4.081 0.209,-0.701 0.357,-1.423 0.281,-2.097 -0.059,-0.671 -0.368,-1.264 -0.916,-1.569 -1.119,-0.653 -2.714,-0.333 -4.037,0.219 -1.361,0.572 -2.614,1.443 -3.777,2.446 0.914,-1.233 2.071,-2.336 3.488,-3.061 m 3.212,8.075 c 0.914,-1.232 2.073,-2.336 3.49,-3.061 0.7,-0.373 1.468,-0.639 2.281,-0.766 0.807,-0.089 1.707,-0.056 2.493,0.418 0.799,0.455 1.257,1.401 1.283,2.243 0.042,0.856 -0.158,1.659 -0.46,2.392 -0.595,1.477 -1.547,2.728 -2.588,3.856 0.774,-1.326 1.504,-2.676 1.951,-4.082 0.21,-0.702 0.356,-1.423 0.279,-2.097 -0.058,-0.671 -0.365,-1.265 -0.916,-1.567 -1.116,-0.655 -2.713,-0.334 -4.034,0.216 -1.363,0.573 -2.616,1.444 -3.779,2.448 m 10.498,3.503 c 0.779,-0.119 1.583,-0.117 2.383,0.042 0.785,0.18 1.603,0.509 2.194,1.18 0.605,0.656 0.815,1.65 0.635,2.471 -0.175,0.833 -0.58,1.554 -1.069,2.17 -0.974,1.246 -2.247,2.147 -3.563,2.901 1.121,-1.023 2.21,-2.083 3.013,-3.295 0.388,-0.607 0.714,-1.254 0.811,-1.914 0.105,-0.653 -0.043,-1.299 -0.48,-1.758 -0.867,-0.962 -2.434,-1.207 -3.852,-1.121 -1.455,0.09 -2.906,0.513 -4.306,1.102 1.233,-0.883 2.671,-1.561 4.234,-1.778 m 5.094,7.663 c -1.455,0.09 -2.903,0.513 -4.304,1.102 1.234,-0.884 2.671,-1.561 4.234,-1.778 0.778,-0.119 1.584,-0.115 2.384,0.041 0.784,0.182 1.602,0.51 2.193,1.182 0.604,0.654 0.814,1.648 0.635,2.47 -0.176,0.832 -0.578,1.554 -1.069,2.17 -0.972,1.247 -2.247,2.149 -3.562,2.9 1.119,-1.022 2.209,-2.082 3.014,-3.292 0.386,-0.609 0.712,-1.256 0.807,-1.916 0.108,-0.653 -0.042,-1.299 -0.477,-1.758 -0.868,-0.963 -2.437,-1.205 -3.855,-1.121 m 5.825,14.798 c 1.043,-0.962 2.048,-1.961 2.8,-3.094 0.388,-0.609 0.713,-1.255 0.81,-1.915 0.106,-0.653 -0.043,-1.299 -0.48,-1.758 -0.866,-0.962 -2.434,-1.206 -3.852,-1.121 -1.455,0.09 -2.905,0.513 -4.305,1.101 1.233,-0.881 2.671,-1.56 4.233,-1.776 0.779,-0.12 1.584,-0.117 2.383,0.04 0.785,0.181 1.605,0.51 2.194,1.182 0.605,0.654 0.815,1.648 0.635,2.47 -0.174,0.832 -0.579,1.554 -1.068,2.17 -0.914,1.168 -2.093,2.03 -3.32,2.752 -0.082,0.05 -0.161,0.103 -0.243,0.149 0.073,-0.067 0.142,-0.133 0.213,-0.2 m 5.219,6.806 c 0.973,-0.907 1.9,-1.85 2.606,-2.913 0.386,-0.607 0.712,-1.255 0.808,-1.915 0.107,-0.653 -0.043,-1.299 -0.477,-1.758 -0.869,-0.962 -2.437,-1.206 -3.855,-1.121 -1.423,0.088 -2.839,0.497 -4.211,1.065 -0.03,0.014 -0.061,0.024 -0.093,0.038 0.027,-0.02 0.057,-0.035 0.083,-0.055 1.216,-0.855 2.622,-1.512 4.151,-1.725 0.777,-0.118 1.584,-0.115 2.384,0.041 0.784,0.183 1.602,0.511 2.192,1.183 0.605,0.653 0.815,1.647 0.637,2.47 -0.177,0.833 -0.58,1.554 -1.071,2.17 -0.845,1.084 -1.921,1.899 -3.051,2.589 -0.17,0.105 -0.339,0.213 -0.511,0.312 0.139,-0.125 0.272,-0.254 0.408,-0.381 M 19.308,20.93 c 0.652,-0.633 1.406,-1.173 2.239,-1.598 0.835,-0.413 1.787,-0.687 2.805,-0.605 0.502,0.064 1.014,0.223 1.456,0.524 0.429,0.31 0.769,0.725 0.998,1.18 0.416,0.923 0.476,1.896 0.389,2.807 -0.167,1.836 -0.859,3.512 -1.672,5.076 0.456,-1.703 0.874,-3.425 0.896,-5.113 -0.004,-0.835 -0.102,-1.674 -0.456,-2.343 -0.189,-0.321 -0.417,-0.599 -0.705,-0.8 -0.295,-0.192 -0.644,-0.295 -1.011,-0.337 -0.745,-0.076 -1.553,0.124 -2.298,0.468 -0.758,0.328 -1.46,0.805 -2.129,1.328 -1.327,1.069 -2.462,2.404 -3.454,3.868 0.649,-1.643 1.61,-3.209 2.942,-4.455 m 12.006,2.044 c -0.757,0.328 -1.46,0.805 -2.128,1.328 -1.329,1.069 -2.462,2.404 -3.456,3.867 0.648,-1.642 1.609,-3.208 2.941,-4.454 0.653,-0.633 1.407,-1.173 2.24,-1.598 0.835,-0.413 1.787,-0.687 2.804,-0.605 0.504,0.063 1.015,0.223 1.456,0.524 0.432,0.31 0.77,0.725 0.997,1.179 0.417,0.925 0.479,1.896 0.393,2.808 -0.168,1.836 -0.861,3.512 -1.672,5.077 0.454,-1.704 0.871,-3.427 0.894,-5.115 -0.004,-0.835 -0.1,-1.674 -0.456,-2.341 -0.187,-0.323 -0.417,-0.601 -0.706,-0.801 -0.294,-0.192 -0.642,-0.295 -1.01,-0.337 -0.745,-0.076 -1.551,0.124 -2.297,0.468 m 12.93,1.565 c 0.107,0.054 0.219,0.091 0.32,0.159 0.429,0.31 0.77,0.725 0.997,1.179 0.418,0.925 0.477,1.897 0.39,2.808 -0.167,1.836 -0.859,3.511 -1.672,5.076 0.455,-1.703 0.872,-3.426 0.896,-5.115 -0.004,-0.834 -0.101,-1.672 -0.456,-2.34 -0.189,-0.323 -0.417,-0.6 -0.704,-0.801 -0.296,-0.193 -0.645,-0.295 -1.012,-0.337 -0.745,-0.076 -1.553,0.124 -2.298,0.468 -0.758,0.328 -1.46,0.804 -2.129,1.328 -1.327,1.069 -2.461,2.404 -3.453,3.868 0.648,-1.643 1.607,-3.209 2.941,-4.455 0.653,-0.633 1.407,-1.173 2.241,-1.598 0.834,-0.413 1.786,-0.687 2.801,-0.605 0.286,0.035 0.567,0.113 0.841,0.218 -0.054,0.238 -0.108,0.477 -0.166,0.715 0.106,-0.213 0.198,-0.433 0.296,-0.651 0.027,0.011 0.049,0.025 0.073,0.037 -0.064,0.161 -0.138,0.318 -0.196,0.483 0.093,-0.149 0.193,-0.291 0.29,-0.437 m 7.627,2.421 c 0.022,-0.001 0.042,10e-4 0.064,0 -0.064,0.158 -0.136,0.311 -0.193,0.472 0.101,-0.161 0.209,-0.315 0.315,-0.473 0.136,-0.001 0.273,-0.012 0.415,-0.001 0.504,0.063 1.014,0.224 1.455,0.524 0.43,0.311 0.77,0.726 0.998,1.181 0.417,0.923 0.477,1.896 0.39,2.806 -0.167,1.837 -0.859,3.512 -1.67,5.077 0.455,-1.703 0.872,-3.426 0.894,-5.114 -0.004,-0.834 -0.1,-1.673 -0.456,-2.342 -0.187,-0.322 -0.417,-0.6 -0.706,-0.8 -0.294,-0.192 -0.643,-0.295 -1.01,-0.337 -0.745,-0.076 -1.553,0.124 -2.298,0.468 -0.756,0.328 -1.46,0.805 -2.129,1.328 -1.327,1.069 -2.461,2.404 -3.453,3.868 0.647,-1.643 1.609,-3.209 2.94,-4.455 0.654,-0.634 1.407,-1.174 2.24,-1.6 0.623,-0.307 1.312,-0.537 2.045,-0.6 -0.055,0.238 -0.108,0.474 -0.166,0.713 0.114,-0.235 0.22,-0.475 0.325,-0.715 m 5.651,6.817 c 0.813,-0.407 1.694,-0.695 2.617,-0.85 0.921,-0.143 1.91,-0.118 2.854,0.266 0.462,0.212 0.903,0.518 1.233,0.937 0.316,0.426 0.516,0.924 0.595,1.426 0.119,1.007 -0.114,1.952 -0.469,2.795 -0.713,1.7 -1.877,3.09 -3.123,4.338 0.946,-1.487 1.862,-3.005 2.392,-4.607 0.247,-0.798 0.406,-1.627 0.27,-2.372 -0.082,-0.363 -0.218,-0.697 -0.433,-0.975 -0.224,-0.272 -0.523,-0.475 -0.861,-0.625 -0.689,-0.297 -1.519,-0.349 -2.332,-0.245 -0.823,0.085 -1.636,0.328 -2.431,0.627 -1.588,0.619 -3.069,1.552 -4.457,2.65 1.111,-1.373 2.499,-2.577 4.145,-3.365 m 8.091,5.472 c 0.815,-0.407 1.697,-0.696 2.618,-0.851 0.92,-0.142 1.912,-0.117 2.856,0.267 0.461,0.212 0.901,0.518 1.23,0.938 0.32,0.425 0.518,0.923 0.597,1.425 0.12,1.007 -0.114,1.951 -0.471,2.794 -0.712,1.701 -1.876,3.091 -3.121,4.339 0.948,-1.487 1.863,-3.005 2.392,-4.607 0.247,-0.798 0.407,-1.627 0.269,-2.371 -0.083,-0.364 -0.215,-0.698 -0.431,-0.976 -0.224,-0.272 -0.526,-0.475 -0.863,-0.625 -0.687,-0.296 -1.518,-0.349 -2.333,-0.245 -0.821,0.085 -1.632,0.329 -2.429,0.626 -1.587,0.62 -3.071,1.553 -4.456,2.651 1.111,-1.373 2.498,-2.577 4.142,-3.365 m 8.158,5.362 c 0.813,-0.406 1.695,-0.694 2.618,-0.849 0.92,-0.143 1.91,-0.117 2.854,0.265 0.461,0.213 0.903,0.52 1.233,0.939 0.316,0.427 0.515,0.923 0.595,1.425 0.119,1.007 -0.115,1.952 -0.47,2.794 -0.712,1.702 -1.876,3.09 -3.122,4.34 0.946,-1.488 1.862,-3.005 2.391,-4.608 0.248,-0.797 0.407,-1.626 0.271,-2.371 -0.083,-0.364 -0.218,-0.696 -0.433,-0.976 -0.224,-0.271 -0.524,-0.474 -0.861,-0.625 -0.689,-0.297 -1.519,-0.347 -2.332,-0.244 -0.824,0.084 -1.636,0.328 -2.432,0.626 -1.587,0.62 -3.069,1.552 -4.456,2.65 1.111,-1.374 2.498,-2.577 4.144,-3.366 m 3.95,8.838 c 1.11,-1.372 2.498,-2.576 4.142,-3.365 0.815,-0.407 1.697,-0.695 2.617,-0.85 0.921,-0.143 1.913,-0.117 2.857,0.266 0.461,0.212 0.9,0.52 1.23,0.938 0.318,0.425 0.518,0.923 0.597,1.425 0.12,1.007 -0.114,1.951 -0.471,2.795 -0.713,1.701 -1.877,3.091 -3.122,4.339 0.949,-1.488 1.864,-3.005 2.393,-4.608 0.247,-0.797 0.406,-1.625 0.268,-2.371 -0.082,-0.364 -0.215,-0.698 -0.431,-0.976 -0.224,-0.271 -0.525,-0.474 -0.862,-0.625 -0.688,-0.296 -1.518,-0.349 -2.333,-0.245 -0.821,0.085 -1.633,0.329 -2.429,0.627 -1.588,0.62 -3.071,1.553 -4.456,2.65 m 12.529,3.799 c 0.898,-0.145 1.825,-0.156 2.752,-0.027 0.921,0.138 1.858,0.461 2.645,1.109 0.376,0.34 0.706,0.764 0.893,1.263 0.176,0.501 0.218,1.035 0.145,1.538 -0.189,0.996 -0.696,1.828 -1.288,2.526 -1.189,1.409 -2.715,2.387 -4.278,3.204 1.349,-1.134 2.677,-2.309 3.662,-3.679 0.475,-0.687 0.875,-1.431 0.967,-2.182 0.03,-0.372 0.002,-0.73 -0.12,-1.061 -0.132,-0.326 -0.357,-0.609 -0.635,-0.854 -0.567,-0.487 -1.344,-0.787 -2.152,-0.933 -0.81,-0.164 -1.657,-0.175 -2.506,-0.129 -1.7,0.118 -3.395,0.562 -5.046,1.194 1.473,-0.976 3.155,-1.71 4.961,-1.969 m 6.083,7.645 c 0.899,-0.145 1.826,-0.157 2.752,-0.028 0.921,0.139 1.858,0.46 2.645,1.11 0.376,0.339 0.705,0.763 0.894,1.261 0.176,0.502 0.217,1.037 0.144,1.539 -0.189,0.996 -0.696,1.828 -1.289,2.526 -1.188,1.409 -2.713,2.387 -4.276,3.205 1.348,-1.136 2.676,-2.311 3.661,-3.68 0.475,-0.687 0.875,-1.43 0.967,-2.181 0.03,-0.372 0.002,-0.731 -0.119,-1.061 -0.133,-0.326 -0.359,-0.609 -0.636,-0.856 -0.567,-0.487 -1.344,-0.787 -2.152,-0.93 -0.809,-0.165 -1.656,-0.176 -2.506,-0.13 -1.7,0.116 -3.395,0.562 -5.046,1.193 1.472,-0.976 3.156,-1.709 4.961,-1.968 m 12.202,9.417 c 0.097,0.157 0.198,0.311 0.265,0.486 0.177,0.502 0.218,1.037 0.142,1.539 -0.187,0.997 -0.693,1.829 -1.286,2.526 -1.188,1.41 -2.716,2.387 -4.277,3.203 1.349,-1.134 2.678,-2.308 3.662,-3.678 0.476,-0.687 0.875,-1.43 0.967,-2.182 0.029,-0.371 0.002,-0.729 -0.119,-1.059 -0.133,-0.327 -0.36,-0.611 -0.637,-0.855 -0.567,-0.489 -1.344,-0.788 -2.15,-0.933 -0.811,-0.166 -1.66,-0.175 -2.506,-0.129 -1.7,0.116 -3.396,0.562 -5.047,1.193 1.472,-0.976 3.155,-1.71 4.96,-1.969 0.899,-0.145 1.826,-0.156 2.753,-0.028 0.922,0.139 1.858,0.461 2.644,1.11 0.199,0.18 0.381,0.387 0.539,0.612 -0.071,0.067 -0.14,0.133 -0.213,0.2 0.082,-0.046 0.161,-0.099 0.243,-0.149 0.019,0.031 0.032,0.067 0.05,0.096 -0.026,0.02 -0.056,0.035 -0.083,0.055 0.032,-0.014 0.063,-0.024 0.093,-0.038 m 0.058,5.786 c 0.898,-0.145 1.825,-0.157 2.753,-0.028 0.799,0.121 1.603,0.393 2.318,0.884 -0.136,0.127 -0.269,0.256 -0.408,0.381 0.172,-0.099 0.341,-0.207 0.511,-0.312 0.072,0.055 0.151,0.098 0.222,0.157 0.377,0.342 0.705,0.763 0.894,1.263 0.177,0.5 0.219,1.036 0.143,1.537 -0.187,0.999 -0.694,1.831 -1.287,2.527 -1.188,1.41 -2.715,2.388 -4.277,3.205 1.349,-1.136 2.678,-2.31 3.662,-3.681 0.476,-0.686 0.875,-1.429 0.967,-2.179 0.03,-0.373 0.002,-0.732 -0.119,-1.062 -0.133,-0.326 -0.36,-0.61 -0.636,-0.854 -0.566,-0.489 -1.344,-0.788 -2.151,-0.932 -0.811,-0.166 -1.66,-0.176 -2.507,-0.13 -1.7,0.116 -3.395,0.562 -5.046,1.192 1.472,-0.975 3.155,-1.709 4.961,-1.968 M -98.037,16.907 c 0.726,0.396 1.37,0.9 1.92,1.482 1.123,1.148 1.903,2.557 2.426,4.019 -0.828,-1.316 -1.771,-2.537 -2.895,-3.529 -0.566,-0.485 -1.165,-0.93 -1.82,-1.235 -0.64,-0.316 -1.353,-0.492 -1.972,-0.374 -0.624,0.095 -1.101,0.559 -1.34,1.197 -0.262,0.631 -0.315,1.379 -0.305,2.119 0.041,1.258 0.281,2.533 0.572,3.806 0.055,0.238 0.109,0.477 0.168,0.715 -0.106,-0.213 -0.199,-0.433 -0.297,-0.651 -0.541,-1.205 -0.971,-2.473 -1.117,-3.827 -0.09,-0.795 -0.069,-1.631 0.211,-2.455 0.25,-0.816 1.015,-1.613 1.946,-1.757 0.913,-0.152 1.778,0.11 2.503,0.49 m -3.709,7.632 c -0.759,-1.147 -1.608,-2.212 -2.605,-3.092 -0.566,-0.486 -1.165,-0.93 -1.819,-1.235 -0.641,-0.316 -1.353,-0.492 -1.973,-0.374 -0.624,0.095 -1.101,0.558 -1.339,1.197 -0.262,0.631 -0.315,1.378 -0.305,2.119 0.041,1.259 0.28,2.535 0.572,3.808 0.055,0.238 0.108,0.474 0.166,0.713 -0.115,-0.235 -0.219,-0.475 -0.325,-0.715 -0.526,-1.186 -0.944,-2.433 -1.088,-3.763 -0.091,-0.795 -0.069,-1.631 0.212,-2.455 0.25,-0.817 1.016,-1.612 1.945,-1.758 0.913,-0.151 1.778,0.111 2.503,0.491 0.728,0.396 1.37,0.9 1.921,1.482 0.996,1.019 1.711,2.249 2.227,3.536 0.065,0.161 0.139,0.318 0.197,0.483 -0.093,-0.149 -0.193,-0.291 -0.289,-0.437 m -7.813,2.42 c -0.752,-1.133 -1.593,-2.185 -2.579,-3.056 -0.567,-0.486 -1.166,-0.931 -1.82,-1.235 -0.641,-0.316 -1.355,-0.492 -1.973,-0.374 -0.624,0.095 -1.1,0.558 -1.34,1.196 -0.262,0.632 -0.314,1.379 -0.303,2.12 0.047,1.493 0.371,3.012 0.737,4.521 -0.681,-1.395 -1.241,-2.88 -1.413,-4.478 -0.09,-0.795 -0.068,-1.632 0.213,-2.455 0.25,-0.817 1.014,-1.612 1.944,-1.758 0.913,-0.151 1.779,0.111 2.503,0.491 0.727,0.396 1.37,0.9 1.921,1.482 0.999,1.022 1.716,2.256 2.231,3.547 0.064,0.158 0.136,0.311 0.194,0.472 -0.102,-0.161 -0.211,-0.315 -0.315,-0.473 m -10.343,-0.488 c -0.567,-0.486 -1.166,-0.931 -1.821,-1.236 -0.64,-0.316 -1.353,-0.491 -1.972,-0.373 -0.625,0.095 -1.101,0.558 -1.34,1.196 -0.262,0.631 -0.315,1.378 -0.305,2.12 0.048,1.493 0.371,3.012 0.738,4.52 -0.681,-1.394 -1.24,-2.879 -1.413,-4.477 -0.09,-0.796 -0.068,-1.632 0.212,-2.455 0.25,-0.817 1.016,-1.613 1.946,-1.758 0.914,-0.151 1.777,0.111 2.503,0.491 0.727,0.396 1.37,0.899 1.92,1.48 1.121,1.149 1.903,2.558 2.424,4.021 -0.826,-1.317 -1.769,-2.538 -2.892,-3.529 m -4.476,6.769 c -1.163,-1.003 -2.416,-1.873 -3.776,-2.446 -1.323,-0.551 -2.918,-0.872 -4.035,-0.218 -0.551,0.304 -0.86,0.897 -0.916,1.569 -0.079,0.673 0.068,1.396 0.277,2.097 0.447,1.404 1.178,2.754 1.951,4.08 -1.041,-1.127 -1.992,-2.378 -2.588,-3.854 -0.302,-0.733 -0.502,-1.537 -0.459,-2.393 0.026,-0.842 0.485,-1.786 1.282,-2.242 0.787,-0.475 1.687,-0.508 2.494,-0.417 0.812,0.126 1.58,0.391 2.281,0.764 1.418,0.725 2.575,1.829 3.489,3.06 m -10.188,1.953 c 1.416,0.725 2.574,1.828 3.488,3.06 -1.164,-1.003 -2.416,-1.873 -3.777,-2.446 -1.323,-0.551 -2.918,-0.872 -4.036,-0.218 -0.548,0.305 -0.858,0.897 -0.916,1.569 -0.077,0.673 0.071,1.396 0.28,2.097 0.445,1.405 1.176,2.754 1.949,4.08 -1.041,-1.127 -1.99,-2.378 -2.586,-3.856 -0.303,-0.731 -0.503,-1.535 -0.461,-2.391 0.026,-0.841 0.484,-1.786 1.283,-2.242 0.786,-0.475 1.686,-0.508 2.493,-0.417 0.814,0.127 1.581,0.391 2.283,0.764 m -9.036,4.15 c 0.813,0.127 1.581,0.391 2.282,0.764 1.418,0.725 2.574,1.828 3.49,3.061 -1.164,-1.003 -2.416,-1.874 -3.777,-2.446 -1.324,-0.552 -2.918,-0.872 -4.037,-0.219 -0.549,0.305 -0.858,0.898 -0.916,1.569 -0.077,0.674 0.07,1.396 0.279,2.097 0.447,1.406 1.179,2.755 1.951,4.081 -1.041,-1.127 -1.992,-2.378 -2.588,-3.855 -0.302,-0.733 -0.502,-1.537 -0.46,-2.393 0.026,-0.841 0.484,-1.786 1.283,-2.242 0.786,-0.474 1.687,-0.508 2.493,-0.417 m -6.7,5.012 c 0.814,0.127 1.581,0.393 2.282,0.766 1.418,0.725 2.575,1.829 3.489,3.061 -1.164,-1.004 -2.416,-1.875 -3.778,-2.448 -1.322,-0.55 -2.918,-0.871 -4.035,-0.216 -0.55,0.302 -0.859,0.896 -0.915,1.567 -0.078,0.674 0.07,1.395 0.279,2.097 0.445,1.406 1.177,2.756 1.949,4.082 -1.041,-1.128 -1.99,-2.379 -2.587,-3.856 -0.302,-0.733 -0.502,-1.536 -0.46,-2.392 0.026,-0.842 0.484,-1.788 1.283,-2.243 0.786,-0.474 1.686,-0.507 2.493,-0.418 m -9.303,8.552 c 0.59,-0.671 1.408,-1 2.193,-1.18 0.799,-0.159 1.605,-0.161 2.383,-0.042 1.563,0.217 3,0.895 4.234,1.778 -1.4,-0.589 -2.85,-1.012 -4.305,-1.102 -1.418,-0.086 -2.986,0.159 -3.853,1.121 -0.436,0.459 -0.585,1.105 -0.479,1.758 0.096,0.66 0.422,1.307 0.81,1.914 0.803,1.212 1.893,2.272 3.013,3.295 -1.316,-0.754 -2.59,-1.655 -3.563,-2.901 -0.489,-0.616 -0.893,-1.337 -1.069,-2.17 -0.18,-0.821 0.03,-1.815 0.636,-2.471 m -4.041,11.236 c 0.803,1.21 1.893,2.27 3.012,3.292 -1.315,-0.751 -2.589,-1.653 -3.562,-2.9 -0.49,-0.616 -0.893,-1.338 -1.069,-2.17 -0.18,-0.822 0.03,-1.816 0.636,-2.47 0.59,-0.672 1.408,-1 2.193,-1.182 0.799,-0.156 1.605,-0.16 2.383,-0.041 1.563,0.217 3,0.894 4.234,1.778 -1.401,-0.589 -2.849,-1.012 -4.305,-1.102 -1.418,-0.084 -2.986,0.158 -3.853,1.121 -0.436,0.459 -0.585,1.105 -0.479,1.758 0.096,0.66 0.422,1.307 0.81,1.916 m -2.331,10.054 c -1.228,-0.722 -2.407,-1.584 -3.321,-2.752 -0.489,-0.616 -0.892,-1.338 -1.069,-2.17 -0.179,-0.822 0.031,-1.816 0.636,-2.47 0.59,-0.672 1.408,-1.001 2.193,-1.182 0.8,-0.157 1.606,-0.16 2.383,-0.04 1.563,0.216 3.001,0.895 4.234,1.776 -1.4,-0.588 -2.849,-1.011 -4.304,-1.101 -1.418,-0.085 -2.986,0.159 -3.853,1.121 -0.437,0.459 -0.586,1.105 -0.479,1.758 0.096,0.66 0.421,1.306 0.809,1.915 0.751,1.133 1.756,2.132 2.799,3.094 0.072,0.067 0.142,0.133 0.214,0.2 -0.082,-0.046 -0.161,-0.099 -0.242,-0.149 m -6.585,-1.588 c 0.799,-0.156 1.605,-0.159 2.383,-0.041 1.53,0.213 2.935,0.87 4.15,1.725 0.027,0.02 0.057,0.035 0.084,0.055 -0.031,-0.014 -0.062,-0.024 -0.094,-0.038 -1.371,-0.568 -2.787,-0.977 -4.21,-1.065 -1.418,-0.085 -2.987,0.159 -3.853,1.121 -0.437,0.459 -0.586,1.105 -0.479,1.758 0.095,0.66 0.421,1.308 0.809,1.915 0.705,1.063 1.633,2.006 2.605,2.913 0.136,0.127 0.271,0.256 0.408,0.381 -0.172,-0.099 -0.34,-0.207 -0.509,-0.312 -1.13,-0.69 -2.207,-1.505 -3.054,-2.589 -0.489,-0.616 -0.893,-1.337 -1.069,-2.17 -0.179,-0.823 0.031,-1.817 0.636,-2.47 0.59,-0.672 1.408,-1 2.193,-1.183 m 87.863,-49.371 c -0.086,-0.911 -0.025,-1.884 0.391,-2.807 0.228,-0.455 0.568,-0.87 0.998,-1.18 0.441,-0.301 0.953,-0.46 1.456,-0.524 1.017,-0.082 1.969,0.192 2.804,0.605 0.833,0.425 1.587,0.965 2.24,1.598 1.332,1.246 2.293,2.812 2.941,4.455 -0.992,-1.464 -2.127,-2.799 -3.453,-3.868 -0.67,-0.523 -1.371,-1 -2.129,-1.328 -0.746,-0.344 -1.554,-0.544 -2.299,-0.468 -0.367,0.042 -0.715,0.145 -1.01,0.337 -0.289,0.201 -0.517,0.479 -0.706,0.8 -0.354,0.669 -0.452,1.508 -0.456,2.343 0.024,1.688 0.44,3.41 0.895,5.113 -0.812,-1.564 -1.504,-3.24 -1.672,-5.076 m -9.364,2.785 c -0.085,-0.912 -0.025,-1.883 0.392,-2.808 0.226,-0.454 0.566,-0.869 0.997,-1.179 0.442,-0.301 0.952,-0.461 1.456,-0.524 1.017,-0.082 1.969,0.192 2.803,0.605 0.833,0.425 1.587,0.965 2.241,1.598 1.332,1.246 2.293,2.812 2.94,4.454 -0.992,-1.463 -2.125,-2.798 -3.454,-3.867 -0.667,-0.523 -1.371,-1 -2.128,-1.328 -0.747,-0.344 -1.553,-0.544 -2.297,-0.468 -0.367,0.042 -0.717,0.145 -1.012,0.337 -0.287,0.2 -0.517,0.478 -0.705,0.801 -0.355,0.667 -0.451,1.506 -0.455,2.341 0.022,1.688 0.439,3.411 0.894,5.115 -0.812,-1.565 -1.504,-3.241 -1.672,-5.077 m -7.22,-0.916 c -0.059,-0.238 -0.113,-0.477 -0.168,-0.715 0.275,-0.105 0.557,-0.183 0.842,-0.218 1.016,-0.082 1.968,0.192 2.802,0.605 0.834,0.425 1.587,0.965 2.243,1.598 1.33,1.246 2.291,2.812 2.938,4.455 -0.991,-1.464 -2.126,-2.799 -3.454,-3.868 -0.668,-0.524 -1.369,-1 -2.128,-1.328 -0.745,-0.344 -1.553,-0.544 -2.298,-0.468 -0.367,0.042 -0.716,0.144 -1.011,0.337 -0.288,0.201 -0.516,0.478 -0.705,0.801 -0.354,0.668 -0.452,1.506 -0.456,2.34 0.024,1.689 0.44,3.412 0.895,5.115 -0.812,-1.565 -1.504,-3.24 -1.672,-5.076 -0.086,-0.911 -0.025,-1.883 0.392,-2.808 0.227,-0.454 0.567,-0.869 0.999,-1.179 0.098,-0.068 0.212,-0.105 0.318,-0.159 0.096,0.146 0.196,0.288 0.289,0.437 -0.058,-0.165 -0.132,-0.322 -0.197,-0.483 0.025,-0.012 0.049,-0.026 0.074,-0.037 0.098,0.218 0.191,0.438 0.297,0.651 m -7.932,1.855 c 0.733,0.063 1.422,0.293 2.044,0.6 0.834,0.426 1.587,0.966 2.241,1.6 1.332,1.246 2.293,2.812 2.94,4.455 -0.992,-1.464 -2.125,-2.799 -3.453,-3.868 -0.668,-0.523 -1.371,-1 -2.129,-1.328 -0.746,-0.344 -1.553,-0.544 -2.297,-0.468 -0.367,0.042 -0.717,0.145 -1.012,0.337 -0.288,0.2 -0.517,0.478 -0.705,0.8 -0.355,0.669 -0.453,1.508 -0.456,2.342 0.023,1.688 0.44,3.411 0.896,5.114 -0.813,-1.565 -1.504,-3.24 -1.672,-5.077 -0.088,-0.91 -0.027,-1.883 0.39,-2.806 0.227,-0.455 0.567,-0.87 0.998,-1.181 0.442,-0.3 0.953,-0.461 1.456,-0.524 0.141,-0.011 0.277,0 0.415,0.001 0.104,0.158 0.213,0.312 0.315,0.473 -0.058,-0.161 -0.13,-0.314 -0.194,-0.472 0.021,10e-4 0.043,-0.001 0.064,0 0.106,0.24 0.21,0.48 0.325,0.715 -0.058,-0.239 -0.111,-0.475 -0.166,-0.713 m -9.517,15.727 c -1.245,-1.248 -2.409,-2.638 -3.12,-4.338 -0.358,-0.843 -0.591,-1.788 -0.472,-2.795 0.08,-0.502 0.279,-1 0.597,-1.426 0.329,-0.419 0.769,-0.725 1.231,-0.937 0.944,-0.384 1.935,-0.409 2.854,-0.266 0.923,0.155 1.804,0.443 2.619,0.85 1.644,0.788 3.031,1.992 4.143,3.365 -1.387,-1.098 -2.87,-2.031 -4.457,-2.65 -0.795,-0.299 -1.608,-0.542 -2.43,-0.627 -0.813,-0.104 -1.645,-0.052 -2.332,0.245 -0.337,0.15 -0.639,0.353 -0.862,0.625 -0.215,0.278 -0.35,0.612 -0.432,0.975 -0.138,0.745 0.022,1.574 0.269,2.372 0.53,1.602 1.446,3.12 2.392,4.607 m -8.092,5.472 c -1.246,-1.248 -2.41,-2.638 -3.121,-4.339 -0.358,-0.843 -0.592,-1.787 -0.472,-2.794 0.079,-0.502 0.278,-1 0.597,-1.425 0.33,-0.42 0.769,-0.726 1.23,-0.938 0.945,-0.384 1.936,-0.409 2.856,-0.267 0.921,0.155 1.803,0.444 2.617,0.851 1.645,0.788 3.032,1.992 4.144,3.365 -1.386,-1.098 -2.87,-2.031 -4.457,-2.651 -0.796,-0.297 -1.609,-0.541 -2.429,-0.626 -0.815,-0.104 -1.646,-0.051 -2.332,0.245 -0.338,0.15 -0.639,0.353 -0.864,0.625 -0.215,0.278 -0.347,0.612 -0.431,0.976 -0.138,0.744 0.022,1.573 0.269,2.371 0.53,1.602 1.446,3.12 2.393,4.607 m -9.525,-3.216 c -0.337,0.151 -0.637,0.354 -0.862,0.625 -0.215,0.28 -0.349,0.612 -0.432,0.976 -0.136,0.745 0.022,1.574 0.269,2.371 0.53,1.603 1.446,3.12 2.394,4.608 -1.247,-1.25 -2.411,-2.638 -3.122,-4.34 -0.357,-0.842 -0.591,-1.787 -0.472,-2.794 0.08,-0.502 0.279,-0.998 0.597,-1.425 0.331,-0.419 0.769,-0.726 1.231,-0.939 0.944,-0.382 1.935,-0.408 2.855,-0.265 0.922,0.155 1.804,0.443 2.618,0.849 1.645,0.789 3.033,1.992 4.143,3.366 -1.386,-1.098 -2.869,-2.03 -4.456,-2.65 -0.796,-0.298 -1.609,-0.542 -2.431,-0.626 -0.813,-0.103 -1.643,-0.053 -2.332,0.244 m -5.635,4.289 c 0.922,0.155 1.803,0.443 2.619,0.85 1.643,0.789 3.031,1.993 4.142,3.365 -1.386,-1.097 -2.869,-2.03 -4.457,-2.65 -0.795,-0.298 -1.607,-0.542 -2.429,-0.627 -0.815,-0.104 -1.645,-0.051 -2.332,0.245 -0.338,0.151 -0.639,0.354 -0.863,0.625 -0.215,0.278 -0.348,0.612 -0.432,0.976 -0.138,0.746 0.022,1.574 0.269,2.371 0.53,1.603 1.446,3.12 2.393,4.608 -1.246,-1.248 -2.41,-2.638 -3.121,-4.339 -0.358,-0.844 -0.592,-1.788 -0.472,-2.795 0.079,-0.502 0.279,-1 0.597,-1.425 0.33,-0.418 0.769,-0.726 1.23,-0.938 0.945,-0.383 1.936,-0.409 2.856,-0.266 m -8.36,8.918 c -0.808,0.146 -1.585,0.446 -2.152,0.933 -0.275,0.245 -0.503,0.528 -0.635,0.854 -0.122,0.331 -0.15,0.689 -0.12,1.061 0.091,0.751 0.492,1.495 0.968,2.182 0.984,1.37 2.312,2.545 3.66,3.679 -1.561,-0.817 -3.088,-1.795 -4.277,-3.204 -0.592,-0.698 -1.099,-1.53 -1.286,-2.526 -0.075,-0.503 -0.033,-1.037 0.143,-1.538 0.189,-0.499 0.517,-0.923 0.893,-1.263 0.787,-0.648 1.724,-0.971 2.645,-1.109 0.927,-0.129 1.853,-0.118 2.752,0.027 1.806,0.259 3.489,0.993 4.961,1.969 -1.651,-0.632 -3.346,-1.076 -5.046,-1.194 -0.848,-0.046 -1.697,-0.035 -2.506,0.129 m -3.492,6.741 c 1.805,0.259 3.489,0.992 4.961,1.968 -1.652,-0.631 -3.346,-1.077 -5.046,-1.193 -0.849,-0.046 -1.697,-0.035 -2.506,0.13 -0.808,0.143 -1.585,0.443 -2.152,0.93 -0.277,0.247 -0.504,0.53 -0.636,0.856 -0.121,0.33 -0.15,0.689 -0.119,1.061 0.091,0.751 0.492,1.494 0.966,2.181 0.986,1.369 2.314,2.544 3.662,3.68 -1.562,-0.818 -3.088,-1.796 -4.277,-3.205 -0.593,-0.698 -1.099,-1.53 -1.287,-2.526 -0.074,-0.502 -0.033,-1.037 0.143,-1.539 0.189,-0.498 0.517,-0.922 0.894,-1.261 0.786,-0.65 1.724,-0.971 2.645,-1.11 0.926,-0.129 1.853,-0.117 2.752,0.028 m -12.193,9.4 c 0.019,-0.029 0.032,-0.065 0.052,-0.096 0.081,0.05 0.16,0.103 0.242,0.149 -0.072,-0.067 -0.142,-0.133 -0.214,-0.2 0.159,-0.225 0.34,-0.432 0.54,-0.612 0.786,-0.649 1.723,-0.971 2.644,-1.11 0.927,-0.128 1.854,-0.117 2.753,0.028 1.805,0.259 3.489,0.993 4.96,1.969 -1.651,-0.631 -3.345,-1.077 -5.046,-1.193 -0.847,-0.046 -1.696,-0.037 -2.504,0.129 -0.81,0.145 -1.586,0.444 -2.153,0.933 -0.277,0.244 -0.504,0.528 -0.636,0.855 -0.122,0.33 -0.15,0.688 -0.12,1.059 0.092,0.752 0.492,1.495 0.967,2.182 0.985,1.37 2.314,2.544 3.662,3.678 -1.562,-0.816 -3.088,-1.793 -4.277,-3.203 -0.593,-0.697 -1.099,-1.529 -1.287,-2.526 -0.074,-0.502 -0.033,-1.037 0.143,-1.539 0.067,-0.175 0.168,-0.329 0.264,-0.486 0.032,0.014 0.063,0.024 0.094,0.038 -0.027,-0.02 -0.057,-0.035 -0.084,-0.055 m -4.73,7.04 c -0.172,-0.099 -0.34,-0.207 -0.509,-0.312 -0.074,0.055 -0.153,0.098 -0.225,0.157 -0.376,0.342 -0.704,0.763 -0.893,1.263 -0.176,0.5 -0.218,1.036 -0.143,1.537 0.187,0.999 0.694,1.831 1.286,2.527 1.189,1.41 2.716,2.388 4.278,3.205 -1.349,-1.136 -2.677,-2.31 -3.662,-3.681 -0.475,-0.686 -0.875,-1.429 -0.967,-2.179 -0.03,-0.373 -0.002,-0.732 0.12,-1.062 0.132,-0.326 0.359,-0.61 0.635,-0.854 0.568,-0.489 1.344,-0.788 2.152,-0.932 0.81,-0.166 1.658,-0.176 2.506,-0.13 1.701,0.116 3.395,0.562 5.046,1.192 -1.471,-0.975 -3.156,-1.709 -4.961,-1.968 -0.899,-0.145 -1.825,-0.157 -2.752,-0.028 -0.799,0.121 -1.605,0.393 -2.319,0.884 0.136,0.127 0.271,0.256 0.408,0.381"
             style="fill:#ffffff;fill-opacity:1;fill-rule:nonzero;stroke:none"
             id="path13758" />
        </g>
        <g
           id="g13760"
           transform="translate(296.2764,372.6211)">
          <path
             d="m 0,0 c -0.454,0.264 -0.911,0.523 -1.365,0.786 0.39,0.971 0.761,1.941 1.08,2.911 1.055,3.173 2.081,6.345 2.961,9.515 0.895,3.171 1.703,6.34 2.261,9.505 L 5.03,22.718 C 5.689,19.572 6.6,16.432 7.596,13.291 8.574,10.15 9.702,7.012 10.856,3.875 11.277,2.714 11.776,1.557 12.302,0.396 11.789,0.087 11.276,-0.225 10.762,-0.531 L 8.032,-2.184 C 7.577,-2.45 7.116,-2.711 6.658,-2.938 6.439,-3.044 6.187,-3.164 6.03,-3.205 6.062,-3.245 5.795,-3.158 5.571,-3.057 3.712,-2.172 1.857,-1.035 0,0 m 168.303,-75.563 c 0.633,0.974 1.253,1.965 1.866,2.967 0.909,-0.521 1.819,-1.037 2.735,-1.551 0.086,-0.044 0.172,-0.089 0.258,-0.136 l -1.449,-3.117 c -1.137,0.612 -2.276,1.222 -3.41,1.837 m -7.421,-10.283 c 0.206,0.257 0.416,0.507 0.62,0.766 l -0.372,-0.914 c -0.083,0.051 -0.166,0.099 -0.248,0.148 m -45.259,-7.265 c 1.163,-1.004 2.416,-1.874 3.777,-2.447 1.323,-0.551 2.918,-0.872 4.036,-0.218 0.549,0.305 0.858,0.898 0.916,1.569 0.077,0.673 -0.071,1.396 -0.28,2.098 -0.446,1.404 -1.176,2.754 -1.95,4.079 1.041,-1.126 1.991,-2.378 2.588,-3.854 0.302,-0.733 0.502,-1.537 0.46,-2.393 -0.025,-0.841 -0.484,-1.787 -1.283,-2.242 -0.785,-0.475 -1.686,-0.508 -2.492,-0.417 -0.814,0.126 -1.582,0.391 -2.284,0.764 -1.417,0.725 -2.574,1.829 -3.488,3.061 m 1.511,-8.322 c -0.786,-0.475 -1.686,-0.508 -2.493,-0.417 -0.813,0.126 -1.581,0.391 -2.283,0.764 -1.417,0.725 -2.574,1.829 -3.488,3.06 1.163,-1.003 2.416,-1.873 3.777,-2.446 1.323,-0.551 2.918,-0.872 4.037,-0.218 0.548,0.304 0.857,0.897 0.916,1.568 0.076,0.674 -0.072,1.396 -0.281,2.098 -0.446,1.405 -1.176,2.754 -1.95,4.08 1.041,-1.127 1.991,-2.378 2.588,-3.855 0.302,-0.732 0.502,-1.536 0.46,-2.392 -0.026,-0.842 -0.483,-1.786 -1.283,-2.242 m -11.476,-4.667 c -1.417,0.725 -2.574,1.828 -3.488,3.061 1.163,-1.003 2.416,-1.874 3.777,-2.446 1.323,-0.552 2.918,-0.872 4.035,-0.219 0.55,0.305 0.859,0.898 0.916,1.569 0.079,0.674 -0.07,1.396 -0.279,2.097 -0.446,1.406 -1.177,2.755 -1.95,4.08 1.041,-1.126 1.992,-2.377 2.588,-3.855 0.302,-0.731 0.502,-1.536 0.46,-2.392 -0.027,-0.841 -0.485,-1.785 -1.283,-2.241 -0.787,-0.475 -1.686,-0.509 -2.494,-0.418 -0.812,0.127 -1.581,0.391 -2.282,0.764 m -2.063,-4.414 c -0.25,-0.817 -1.015,-1.612 -1.946,-1.758 -0.913,-0.15 -1.778,0.111 -2.503,0.491 -0.727,0.396 -1.37,0.9 -1.919,1.482 -1.123,1.148 -1.904,2.557 -2.425,4.019 0.826,-1.316 1.769,-2.537 2.892,-3.529 0.567,-0.485 1.166,-0.93 1.822,-1.235 0.638,-0.316 1.352,-0.492 1.971,-0.373 0.624,0.094 1.101,0.558 1.34,1.196 0.262,0.631 0.315,1.379 0.305,2.119 -0.049,1.494 -0.371,3.013 -0.737,4.521 0.679,-1.395 1.239,-2.879 1.412,-4.478 0.089,-0.795 0.068,-1.631 -0.212,-2.455 m -9.71,-4.325 c -0.913,-0.151 -1.779,0.11 -2.503,0.491 -0.727,0.395 -1.37,0.9 -1.921,1.481 -0.999,1.023 -1.716,2.257 -2.232,3.548 -0.021,0.001 -0.041,-10e-4 -0.063,0 0.526,-1.186 0.944,-2.433 1.088,-3.763 0.091,-0.795 0.068,-1.631 -0.212,-2.456 -0.25,-0.816 -1.015,-1.611 -1.945,-1.757 -0.913,-0.151 -1.779,0.11 -2.503,0.491 -0.727,0.395 -1.369,0.9 -1.921,1.481 -0.996,1.02 -1.711,2.25 -2.228,3.536 -0.024,-0.011 -0.048,-0.027 -0.073,-0.036 0.54,-1.205 0.971,-2.473 1.117,-3.827 0.091,-0.795 0.07,-1.631 -0.212,-2.455 -0.25,-0.816 -1.014,-1.612 -1.945,-1.758 -0.913,-0.151 -1.778,0.111 -2.503,0.491 -0.726,0.396 -1.37,0.9 -1.921,1.481 -1.121,1.148 -1.901,2.558 -2.424,4.02 0.827,-1.318 1.77,-2.537 2.894,-3.529 0.566,-0.486 1.166,-0.931 1.819,-1.235 0.641,-0.317 1.354,-0.492 1.973,-0.373 0.624,0.094 1.101,0.557 1.34,1.194 0.261,0.633 0.315,1.38 0.304,2.121 -0.04,1.258 -0.279,2.533 -0.572,3.805 -0.274,-0.105 -0.556,-0.182 -0.841,-0.217 -1.015,-0.083 -1.967,0.191 -2.801,0.605 -0.834,0.424 -1.588,0.964 -2.243,1.598 -1.332,1.246 -2.293,2.812 -2.939,4.455 0.992,-1.464 2.126,-2.799 3.453,-3.868 0.669,-0.524 1.371,-1 2.129,-1.328 0.745,-0.344 1.553,-0.546 2.298,-0.468 0.367,0.042 0.716,0.145 1.011,0.337 0.288,0.2 0.516,0.478 0.705,0.8 0.355,0.669 0.452,1.508 0.456,2.342 -0.024,1.688 -0.441,3.411 -0.896,5.114 0.813,-1.565 1.505,-3.24 1.672,-5.076 0.087,-0.911 0.026,-1.885 -0.391,-2.808 -0.226,-0.455 -0.567,-0.87 -0.998,-1.18 -0.099,-0.067 -0.211,-0.104 -0.318,-0.158 0.758,-1.147 1.607,-2.212 2.604,-3.092 0.566,-0.486 1.166,-0.931 1.819,-1.235 0.641,-0.317 1.353,-0.493 1.973,-0.374 0.624,0.095 1.1,0.558 1.339,1.196 0.262,0.631 0.316,1.379 0.305,2.12 -0.041,1.258 -0.279,2.535 -0.572,3.808 -0.733,0.063 -1.422,0.293 -2.045,0.601 -0.833,0.425 -1.586,0.965 -2.24,1.598 -1.331,1.247 -2.293,2.812 -2.94,4.455 0.992,-1.463 2.126,-2.798 3.453,-3.868 0.669,-0.523 1.371,-1 2.129,-1.327 0.745,-0.345 1.553,-0.544 2.298,-0.469 0.367,0.042 0.716,0.146 1.01,0.337 0.289,0.201 0.517,0.479 0.706,0.8 0.354,0.668 0.452,1.508 0.456,2.343 -0.023,1.688 -0.439,3.409 -0.896,5.114 0.813,-1.565 1.505,-3.241 1.672,-5.077 0.087,-0.911 0.027,-1.883 -0.39,-2.807 -0.228,-0.455 -0.568,-0.869 -0.998,-1.18 -0.441,-0.301 -0.951,-0.46 -1.456,-0.524 -0.141,-0.011 -0.278,0 -0.414,0.001 0.751,-1.133 1.591,-2.185 2.578,-3.056 0.566,-0.486 1.166,-0.931 1.82,-1.235 0.641,-0.317 1.354,-0.493 1.973,-0.374 0.624,0.095 1.1,0.558 1.34,1.196 0.261,0.631 0.314,1.379 0.304,2.12 -0.048,1.494 -0.371,3.012 -0.738,4.521 0.681,-1.395 1.24,-2.88 1.413,-4.478 0.09,-0.795 0.068,-1.631 -0.212,-2.456 -0.25,-0.816 -1.015,-1.611 -1.945,-1.757 m -27.679,0.676 c -0.833,0.425 -1.587,0.965 -2.24,1.598 -1.332,1.247 -2.293,2.813 -2.941,4.455 0.993,-1.463 2.127,-2.798 3.454,-3.868 0.669,-0.522 1.373,-1 2.129,-1.328 0.746,-0.343 1.553,-0.544 2.298,-0.467 0.367,0.041 0.716,0.145 1.01,0.335 0.289,0.202 0.518,0.48 0.706,0.802 0.355,0.669 0.452,1.507 0.456,2.342 -0.023,1.687 -0.44,3.411 -0.894,5.114 0.811,-1.565 1.504,-3.24 1.67,-5.076 0.087,-0.912 0.026,-1.884 -0.391,-2.809 -0.227,-0.454 -0.567,-0.868 -0.997,-1.179 -0.441,-0.3 -0.952,-0.46 -1.456,-0.524 -1.017,-0.082 -1.969,0.192 -2.804,0.605 m -6.163,-23.316 -0.271,3.534 5.779,0.82 0.429,-4.115 z m -5.44,22.13 c -1.332,1.246 -2.294,2.811 -2.942,4.455 0.992,-1.464 2.127,-2.799 3.454,-3.868 0.669,-0.523 1.371,-1 2.129,-1.328 0.745,-0.344 1.553,-0.544 2.298,-0.468 0.367,0.042 0.716,0.145 1.011,0.337 0.288,0.199 0.516,0.478 0.705,0.8 0.354,0.669 0.452,1.508 0.456,2.342 -0.024,1.688 -0.441,3.411 -0.896,5.114 0.813,-1.564 1.505,-3.24 1.672,-5.077 0.087,-0.91 0.026,-1.882 -0.389,-2.807 -0.229,-0.454 -0.569,-0.869 -0.999,-1.179 -0.441,-0.301 -0.953,-0.461 -1.456,-0.524 -1.017,-0.082 -1.969,0.192 -2.804,0.605 -0.833,0.425 -1.587,0.965 -2.239,1.598 m -8.388,-21.934 -0.031,1.885 5.838,0.556 0.11,-2.66 z m -7.925,0.647 -2.995,0.357 0.688,0.052 0.111,0.009 2.205,0.169 z m -13.817,-49.74 c -1.335,2.484 -2.729,4.961 -4.105,7.426 0.446,1.5 0.89,2.999 1.339,4.5 0.866,-3.996 1.803,-7.966 2.766,-11.926 m 17.113,-41.732 c -0.308,-0.964 -0.661,-1.913 -0.995,-2.878 l -0.136,0.075 -0.659,0.366 c 0.165,0.224 0.328,0.45 0.491,0.676 0.426,0.587 0.851,1.177 1.299,1.761 m -8.117,-14.951 -0.132,0.13 -2.54,2.497 c 0.839,0.723 1.646,1.492 2.442,2.279 0.55,0.544 1.097,1.092 1.634,1.658 l 2.155,-1.634 c -1.043,-1.725 -2.24,-3.369 -3.559,-4.93 m -8.262,-7.189 c -1.013,-0.629 -2.061,-1.209 -3.151,-1.722 l -2.096,4.893 c 1.666,0.632 3.289,1.421 4.862,2.333 l 0.729,-1.095 1.917,-2.878 c -0.727,-0.543 -1.485,-1.05 -2.261,-1.531 m -17.783,-4.465 0.485,5.936 c 1.737,-0.143 3.486,-0.15 5.221,0.048 l 0.759,-5.742 c -2.133,-0.314 -4.31,-0.418 -6.465,-0.242 m -0.849,46.333 c -0.061,0.746 -0.122,1.492 -0.183,2.238 l 1.561,0.015 c -0.116,-1.418 -0.23,-2.835 -0.346,-4.253 l -0.446,-6.384 z m -7.528,-44.474 c -0.733,0.27 -1.445,0.579 -2.151,0.904 -1.231,0.568 -2.423,1.205 -3.573,1.898 l 2.92,4.991 c 0.005,-0.002 0.009,-0.004 0.013,-0.006 1.556,-0.877 3.183,-1.592 4.836,-2.196 z m -10.458,10.012 -1.861,-2.069 c -1.493,1.44 -2.864,2.986 -4.116,4.608 l 3.605,3.106 c 0.778,-0.803 1.586,-1.568 2.405,-2.313 0.544,-0.495 1.091,-0.987 1.654,-1.454 z m -10.391,9.359 c -0.874,1.821 -1.738,3.636 -2.542,5.462 l 2.389,1.235 c 1.143,-1.558 2.225,-3.128 3.297,-4.69 z m -5.602,16.008 c 0.511,-0.879 0.977,-1.77 1.464,-2.648 l -0.841,-0.33 c -0.209,0.998 -0.439,1.983 -0.623,2.978 m 20,45.58 0.639,-2.105 c 0.273,-0.847 0.538,-1.694 0.806,-2.542 -1.449,-2.598 -2.923,-5.212 -4.332,-7.834 1.008,4.144 1.989,8.297 2.887,12.481 m 1.685,152.998 c 1.106,0 2,-1.567 2,-3.5 0,-0.345 -0.037,-0.671 -0.09,-0.986 -0.171,1.627 -0.983,2.86 -1.963,2.86 -0.908,0 -1.665,-1.064 -1.91,-2.514 -0.021,0.208 -0.037,0.421 -0.037,0.64 0,1.933 0.897,3.5 2,3.5 m 23,0 c 1.106,0 2,-1.567 2,-3.5 0,-0.345 -0.037,-0.671 -0.09,-0.986 -0.17,1.627 -0.983,2.86 -1.962,2.86 -0.909,0 -1.666,-1.064 -1.911,-2.514 -0.021,0.208 -0.037,0.421 -0.037,0.64 0,1.933 0.896,3.5 2,3.5 m 75.848,-82.891 c 0.795,-0.298 1.608,-0.542 2.43,-0.626 0.814,-0.104 1.644,-0.052 2.332,0.245 0.338,0.15 0.638,0.353 0.862,0.625 0.215,0.278 0.35,0.612 0.432,0.975 0.137,0.745 -0.022,1.574 -0.269,2.371 -0.53,1.603 -1.446,3.12 -2.393,4.608 1.247,-1.248 2.411,-2.639 3.123,-4.339 0.356,-0.843 0.589,-1.788 0.47,-2.795 -0.079,-0.502 -0.279,-0.999 -0.596,-1.425 -0.331,-0.419 -0.77,-0.726 -1.232,-0.937 -0.944,-0.384 -1.934,-0.41 -2.854,-0.268 -0.923,0.156 -1.804,0.444 -2.619,0.852 -1.644,0.788 -3.032,1.992 -4.143,3.364 1.387,-1.097 2.869,-2.03 4.457,-2.65 m 8.093,5.472 c 0.796,-0.298 1.608,-0.541 2.429,-0.626 0.815,-0.104 1.646,-0.052 2.333,0.245 0.337,0.15 0.639,0.353 0.863,0.625 0.216,0.278 0.348,0.612 0.431,0.975 0.138,0.745 -0.022,1.574 -0.269,2.371 -0.53,1.603 -1.446,3.121 -2.392,4.608 1.245,-1.248 2.409,-2.638 3.121,-4.339 0.357,-0.842 0.591,-1.788 0.471,-2.794 -0.079,-0.502 -0.278,-1 -0.597,-1.426 -0.329,-0.419 -0.769,-0.725 -1.23,-0.937 -0.944,-0.384 -1.936,-0.409 -2.856,-0.267 -0.922,0.155 -1.803,0.442 -2.618,0.85 -1.644,0.789 -3.031,1.993 -4.142,3.365 1.385,-1.097 2.869,-2.03 4.456,-2.65 m 8.156,5.363 c 0.796,-0.297 1.608,-0.541 2.431,-0.626 0.814,-0.105 1.644,-0.051 2.332,0.245 0.337,0.15 0.638,0.354 0.862,0.625 0.215,0.277 0.349,0.611 0.432,0.977 0.137,0.743 -0.022,1.572 -0.27,2.371 -0.529,1.601 -1.445,3.119 -2.392,4.607 1.247,-1.249 2.411,-2.639 3.122,-4.339 0.356,-0.843 0.59,-1.788 0.471,-2.796 -0.08,-0.502 -0.279,-1 -0.596,-1.424 -0.331,-0.419 -0.771,-0.726 -1.232,-0.938 -0.944,-0.384 -1.935,-0.409 -2.854,-0.267 -0.923,0.157 -1.805,0.444 -2.62,0.851 -1.644,0.788 -3.031,1.992 -4.142,3.364 1.387,-1.097 2.869,-2.029 4.456,-2.65 m 41.345,-11.375 -1.261,-1.301 -2.548,2.879 -0.185,0.208 3.729,3.142 0.694,0.585 2.48,-2.51 z m -24.621,11.784 c 1.321,-0.552 2.918,-0.873 4.034,-0.22 0.55,0.306 0.858,0.899 0.916,1.571 0.077,0.671 -0.071,1.395 -0.28,2.095 -0.446,1.407 -1.176,2.756 -1.95,4.08 1.041,-1.125 1.991,-2.377 2.588,-3.853 0.302,-0.733 0.502,-1.537 0.46,-2.393 -0.026,-0.841 -0.484,-1.786 -1.283,-2.242 -0.786,-0.474 -1.686,-0.508 -2.493,-0.417 -0.813,0.127 -1.581,0.391 -2.281,0.764 -1.418,0.725 -2.576,1.829 -3.49,3.061 1.163,-1.004 2.416,-1.875 3.779,-2.446 m -2.843,8.653 c -0.53,1.603 -1.446,3.121 -2.393,4.608 1.245,-1.248 2.409,-2.637 3.122,-4.338 0.357,-0.843 0.591,-1.789 0.471,-2.795 -0.079,-0.502 -0.279,-1 -0.597,-1.426 -0.33,-0.42 -0.769,-0.724 -1.23,-0.937 -0.944,-0.384 -1.936,-0.409 -2.857,-0.266 -0.921,0.154 -1.802,0.441 -2.617,0.85 -1.644,0.788 -3.032,1.992 -4.142,3.364 1.385,-1.097 2.868,-2.028 4.456,-2.649 0.795,-0.297 1.608,-0.542 2.429,-0.627 0.815,-0.103 1.645,-0.051 2.332,0.246 0.338,0.15 0.639,0.353 0.863,0.625 0.215,0.278 0.349,0.611 0.431,0.974 0.138,0.744 -0.021,1.574 -0.268,2.371 m 12.584,-26.542 c 1.573,1.094 3.178,2.148 4.771,3.225 l 0.45,-0.585 2.414,-3.146 c -1.33,-1.037 -2.654,-2.088 -3.993,-3.124 -0.246,-0.189 -0.49,-0.383 -0.738,-0.572 l -2.258,3.267 z m 6.404,34.38 c -0.095,0.66 -0.421,1.308 -0.809,1.914 -0.803,1.213 -1.893,2.273 -3.012,3.296 1.315,-0.753 2.59,-1.655 3.562,-2.901 0.49,-0.615 0.893,-1.337 1.069,-2.171 0.179,-0.821 -0.031,-1.815 -0.635,-2.47 -0.591,-0.672 -1.409,-1 -2.194,-1.181 -0.799,-0.157 -1.605,-0.161 -2.383,-0.041 -1.563,0.216 -3,0.895 -4.234,1.778 1.401,-0.589 2.849,-1.012 4.304,-1.103 1.418,-0.086 2.987,0.159 3.855,1.121 0.435,0.459 0.584,1.106 0.477,1.758 m -5.022,-6.987 c -0.097,0.661 -0.423,1.308 -0.811,1.915 -0.803,1.212 -1.893,2.271 -3.013,3.295 1.316,-0.753 2.589,-1.654 3.563,-2.9 0.489,-0.618 0.892,-1.338 1.069,-2.17 0.18,-0.825 -0.03,-1.818 -0.636,-2.472 -0.59,-0.671 -1.408,-1 -2.193,-1.183 -0.8,-0.155 -1.604,-0.158 -2.383,-0.039 -1.563,0.217 -3.001,0.895 -4.234,1.778 1.4,-0.589 2.85,-1.013 4.305,-1.102 1.418,-0.085 2.986,0.158 3.853,1.121 0.436,0.459 0.585,1.106 0.48,1.757 m 5.111,23.145 c -0.984,1.372 -2.314,2.545 -3.662,3.681 1.561,-0.818 3.089,-1.795 4.277,-3.204 0.593,-0.698 1.099,-1.53 1.286,-2.525 0.075,-0.504 0.034,-1.037 -0.142,-1.539 -0.067,-0.176 -0.168,-0.331 -0.265,-0.486 1.372,-0.569 2.788,-0.978 4.211,-1.067 1.418,-0.084 2.986,0.16 3.854,1.122 0.435,0.459 0.584,1.104 0.478,1.757 -0.096,0.661 -0.422,1.308 -0.81,1.915 -0.704,1.063 -1.631,2.007 -2.604,2.913 -0.715,-0.49 -1.521,-0.762 -2.318,-0.882 -0.928,-0.129 -1.855,-0.118 -2.753,0.026 -1.806,0.261 -3.49,0.994 -4.961,1.97 1.651,-0.632 3.345,-1.077 5.046,-1.193 0.847,-0.047 1.696,-0.036 2.506,0.13 0.808,0.144 1.584,0.443 2.152,0.931 0.276,0.244 0.503,0.53 0.635,0.855 0.122,0.33 0.15,0.688 0.12,1.059 -0.092,0.752 -0.491,1.496 -0.967,2.183 -0.985,1.37 -2.314,2.544 -3.662,3.681 1.562,-0.819 3.089,-1.797 4.277,-3.205 0.593,-0.698 1.1,-1.53 1.287,-2.527 0.075,-0.503 0.033,-1.037 -0.143,-1.538 -0.189,-0.499 -0.517,-0.924 -0.894,-1.264 -0.071,-0.059 -0.15,-0.102 -0.223,-0.155 1.129,-0.692 2.206,-1.507 3.052,-2.591 0.49,-0.615 0.894,-1.336 1.071,-2.17 0.178,-0.821 -0.032,-1.815 -0.637,-2.468 -0.59,-0.674 -1.408,-1.002 -2.193,-1.183 -0.799,-0.157 -1.606,-0.16 -2.383,-0.041 -1.53,0.212 -2.935,0.869 -4.151,1.724 -0.018,-0.032 -0.031,-0.065 -0.05,-0.095 1.227,-0.726 2.406,-1.584 3.32,-2.753 0.489,-0.616 0.892,-1.337 1.068,-2.17 0.18,-0.823 -0.03,-1.816 -0.636,-2.471 -0.588,-0.672 -1.408,-1 -2.193,-1.182 -0.799,-0.156 -1.604,-0.159 -2.383,-0.04 -1.562,0.217 -3,0.894 -4.233,1.778 1.4,-0.589 2.849,-1.013 4.304,-1.103 1.418,-0.083 2.987,0.159 3.853,1.122 0.437,0.459 0.586,1.105 0.48,1.757 -0.097,0.661 -0.422,1.308 -0.81,1.914 -0.752,1.135 -1.757,2.133 -2.8,3.096 -0.158,-0.224 -0.34,-0.432 -0.539,-0.613 -0.786,-0.649 -1.723,-0.97 -2.644,-1.109 -0.927,-0.127 -1.854,-0.118 -2.753,0.027 -1.805,0.26 -3.49,0.994 -4.96,1.971 1.651,-0.633 3.345,-1.079 5.047,-1.196 0.846,-0.045 1.695,-0.034 2.505,0.131 0.807,0.145 1.583,0.443 2.151,0.932 0.277,0.244 0.504,0.529 0.637,0.855 0.121,0.328 0.148,0.688 0.119,1.06 -0.092,0.751 -0.492,1.494 -0.967,2.18 m -6.177,-7.558 c -0.985,1.37 -2.313,2.544 -3.661,3.68 1.562,-0.818 3.088,-1.795 4.276,-3.206 0.593,-0.696 1.1,-1.528 1.288,-2.525 0.074,-0.502 0.033,-1.037 -0.143,-1.538 -0.19,-0.499 -0.518,-0.923 -0.894,-1.265 -0.787,-0.647 -1.724,-0.968 -2.645,-1.108 -0.926,-0.128 -1.853,-0.117 -2.752,0.028 -1.805,0.26 -3.489,0.992 -4.961,1.97 1.651,-0.632 3.346,-1.078 5.046,-1.194 0.849,-0.047 1.697,-0.036 2.506,0.131 0.808,0.143 1.585,0.442 2.152,0.93 0.276,0.245 0.503,0.528 0.636,0.855 0.121,0.33 0.149,0.689 0.119,1.06 -0.092,0.752 -0.492,1.494 -0.967,2.182 m -6.083,-7.645 c -0.985,1.371 -2.313,2.545 -3.662,3.681 1.563,-0.817 3.089,-1.796 4.277,-3.206 0.593,-0.697 1.1,-1.529 1.288,-2.525 0.074,-0.502 0.032,-1.038 -0.144,-1.54 -0.189,-0.498 -0.517,-0.921 -0.894,-1.262 -0.786,-0.65 -1.723,-0.97 -2.644,-1.109 -0.927,-0.129 -1.854,-0.117 -2.752,0.028 -1.806,0.259 -3.489,0.992 -4.961,1.968 1.651,-0.63 3.346,-1.076 5.046,-1.193 0.848,-0.047 1.696,-0.035 2.506,0.13 0.808,0.146 1.585,0.442 2.152,0.933 0.276,0.243 0.503,0.528 0.635,0.854 0.122,0.33 0.15,0.689 0.12,1.06 -0.092,0.752 -0.492,1.495 -0.967,2.181 m -5.84,-42.076 5.064,2.732 0.843,-1.403 1.966,-3.276 -2.503,-1.499 -2.654,-1.589 -1.745,3.234 z m 35.715,23.641 -1.195,-1.683 -2.001,1.734 0.952,1.024 3.009,3.239 1.493,-1.135 z m 6.964,11.799 c -0.257,-0.579 -0.512,-1.157 -0.774,-1.737 l -0.5,0.303 1.063,1.508 0.666,0.945 c -0.145,-0.34 -0.304,-0.68 -0.455,-1.019 m 9.064,17.677 c 1.306,-0.593 2.619,-1.175 3.939,-1.746 l -1.261,-3.4 c -0.585,0.348 -1.163,0.696 -1.72,1.039 l -1.48,-3.184 c -0.207,0.052 -0.413,0.101 -0.62,0.153 -0.776,0.185 -1.553,0.386 -2.329,0.577 1.201,2.128 2.361,4.311 3.471,6.561 m 6.784,7.802 -1.323,-4.602 c -1.22,0.183 -2.443,0.384 -3.665,0.584 0.721,1.582 1.413,3.2 2.087,4.841 0.963,-0.283 1.93,-0.558 2.901,-0.823 m 0.372,6.146 0.012,-1.748 c -0.611,0.029 -1.221,0.054 -1.834,0.089 0.462,1.223 0.912,2.459 1.345,3.713 z m -208.782,-88.527 -0.007,0.587 2.968,-0.228 0.036,-0.002 -0.034,-0.004 z m -13.841,-0.866 0.109,2.66 5.839,-0.556 -0.03,-1.885 z m -2.027,22.153 c -0.653,-0.633 -1.407,-1.173 -2.24,-1.598 -0.835,-0.413 -1.787,-0.687 -2.804,-0.605 -0.504,0.063 -1.015,0.223 -1.456,0.524 -0.43,0.31 -0.77,0.725 -0.998,1.179 -0.416,0.925 -0.477,1.897 -0.391,2.807 0.168,1.837 0.86,3.513 1.672,5.077 -0.456,-1.703 -0.872,-3.426 -0.895,-5.114 0.003,-0.834 0.102,-1.673 0.456,-2.342 0.189,-0.322 0.417,-0.601 0.706,-0.8 0.295,-0.192 0.643,-0.295 1.009,-0.337 0.746,-0.076 1.554,0.124 2.3,0.468 0.758,0.328 1.459,0.805 2.129,1.328 1.326,1.069 2.461,2.404 3.453,3.868 -0.648,-1.644 -1.61,-3.209 -2.941,-4.455 m -11.822,-21.891 0.431,4.115 5.778,-0.82 -0.27,-3.534 z m -2.586,22.472 c -0.504,0.064 -1.015,0.224 -1.456,0.524 -0.432,0.311 -0.771,0.725 -0.997,1.179 -0.417,0.925 -0.478,1.897 -0.392,2.809 0.168,1.836 0.86,3.511 1.672,5.076 -0.455,-1.703 -0.872,-3.427 -0.894,-5.114 0.004,-0.835 0.1,-1.673 0.455,-2.342 0.188,-0.322 0.418,-0.6 0.705,-0.802 0.295,-0.19 0.642,-0.294 1.012,-0.335 0.744,-0.077 1.55,0.124 2.297,0.467 0.757,0.328 1.458,0.806 2.128,1.328 1.329,1.07 2.462,2.405 3.454,3.868 -0.647,-1.642 -1.608,-3.208 -2.94,-4.455 -0.654,-0.633 -1.408,-1.173 -2.241,-1.598 -0.834,-0.413 -1.786,-0.687 -2.803,-0.605 m -4.899,-3.123 c -0.55,-0.581 -1.194,-1.085 -1.92,-1.481 -0.725,-0.38 -1.591,-0.642 -2.503,-0.491 -0.931,0.146 -1.696,0.942 -1.946,1.758 -0.28,0.824 -0.301,1.66 -0.211,2.455 0.146,1.354 0.576,2.622 1.116,3.827 -0.025,0.009 -0.048,0.025 -0.073,0.036 -0.516,-1.286 -1.231,-2.516 -2.227,-3.536 -0.551,-0.581 -1.193,-1.086 -1.921,-1.481 -0.725,-0.381 -1.59,-0.642 -2.503,-0.491 -0.929,0.146 -1.696,0.941 -1.946,1.757 -0.28,0.825 -0.302,1.661 -0.211,2.456 0.144,1.33 0.562,2.577 1.088,3.763 -0.021,-10e-4 -0.043,0.001 -0.064,0 -0.515,-1.291 -1.232,-2.525 -2.231,-3.548 -0.551,-0.581 -1.194,-1.086 -1.921,-1.481 -0.725,-0.381 -1.59,-0.642 -2.503,-0.491 -0.931,0.146 -1.694,0.941 -1.944,1.757 -0.281,0.825 -0.303,1.661 -0.214,2.456 0.173,1.598 0.733,3.083 1.414,4.478 -0.366,-1.509 -0.69,-3.027 -0.737,-4.521 -0.012,-0.741 0.041,-1.489 0.302,-2.12 0.241,-0.638 0.717,-1.101 1.341,-1.196 0.618,-0.119 1.332,0.057 1.972,0.374 0.655,0.304 1.254,0.749 1.821,1.235 0.986,0.871 1.827,1.923 2.579,3.056 -0.138,-0.001 -0.275,-0.012 -0.415,-0.001 -0.505,0.064 -1.014,0.223 -1.456,0.524 -0.431,0.311 -0.771,0.725 -0.998,1.18 -0.417,0.924 -0.478,1.896 -0.39,2.807 0.168,1.836 0.859,3.512 1.671,5.077 -0.455,-1.705 -0.872,-3.426 -0.896,-5.114 0.004,-0.835 0.102,-1.675 0.457,-2.343 0.187,-0.321 0.416,-0.599 0.705,-0.8 0.295,-0.191 0.645,-0.295 1.012,-0.337 0.743,-0.075 1.551,0.124 2.297,0.469 0.757,0.327 1.461,0.804 2.129,1.327 1.328,1.07 2.46,2.405 3.453,3.868 -0.647,-1.643 -1.608,-3.208 -2.94,-4.455 -0.654,-0.633 -1.407,-1.173 -2.241,-1.598 -0.623,-0.308 -1.312,-0.538 -2.044,-0.601 -0.292,-1.273 -0.531,-2.55 -0.572,-3.808 -0.01,-0.741 0.043,-1.489 0.304,-2.12 0.239,-0.638 0.716,-1.101 1.34,-1.196 0.619,-0.119 1.332,0.057 1.973,0.374 0.654,0.304 1.253,0.749 1.819,1.235 0.997,0.88 1.846,1.945 2.605,3.092 -0.108,0.054 -0.22,0.091 -0.32,0.158 -0.43,0.31 -0.771,0.725 -0.999,1.18 -0.416,0.923 -0.476,1.897 -0.39,2.808 0.168,1.836 0.86,3.511 1.672,5.076 -0.455,-1.703 -0.871,-3.426 -0.895,-5.114 0.004,-0.834 0.102,-1.673 0.456,-2.342 0.189,-0.322 0.417,-0.6 0.705,-0.8 0.295,-0.192 0.644,-0.295 1.011,-0.337 0.745,-0.078 1.553,0.124 2.297,0.468 0.76,0.328 1.461,0.804 2.129,1.328 1.328,1.069 2.463,2.404 3.454,3.868 -0.648,-1.643 -1.608,-3.209 -2.94,-4.455 -0.654,-0.634 -1.407,-1.174 -2.241,-1.598 -0.834,-0.414 -1.786,-0.688 -2.802,-0.605 -0.285,0.035 -0.567,0.112 -0.842,0.217 -0.291,-1.272 -0.532,-2.547 -0.573,-3.805 -0.009,-0.741 0.043,-1.488 0.306,-2.121 0.239,-0.637 0.715,-1.1 1.34,-1.194 0.619,-0.119 1.332,0.056 1.972,0.373 0.654,0.304 1.254,0.749 1.82,1.235 1.124,0.992 2.067,2.211 2.895,3.529 -0.523,-1.462 -1.303,-2.872 -2.426,-4.02 m -27.741,5.619 c -0.929,0.146 -1.695,0.941 -1.945,1.758 -0.28,0.824 -0.303,1.66 -0.212,2.455 0.173,1.599 0.732,3.083 1.413,4.478 -0.367,-1.508 -0.69,-3.027 -0.738,-4.521 -0.01,-0.74 0.043,-1.488 0.305,-2.119 0.239,-0.638 0.715,-1.102 1.34,-1.196 0.619,-0.119 1.332,0.057 1.972,0.373 0.655,0.305 1.254,0.75 1.821,1.235 1.123,0.992 2.065,2.213 2.892,3.529 -0.521,-1.462 -1.303,-2.871 -2.424,-4.019 -0.55,-0.582 -1.194,-1.086 -1.922,-1.482 -0.724,-0.38 -1.587,-0.641 -2.502,-0.491 m -4.009,6.172 c -0.701,-0.373 -1.469,-0.637 -2.282,-0.764 -0.807,-0.091 -1.707,-0.057 -2.493,0.418 -0.799,0.456 -1.257,1.4 -1.282,2.241 -0.043,0.856 0.157,1.661 0.459,2.392 0.596,1.478 1.546,2.729 2.587,3.855 -0.772,-1.325 -1.503,-2.674 -1.95,-4.08 -0.209,-0.701 -0.356,-1.423 -0.28,-2.097 0.059,-0.671 0.368,-1.264 0.917,-1.569 1.119,-0.653 2.712,-0.333 4.037,0.219 1.36,0.572 2.613,1.443 3.776,2.446 -0.915,-1.233 -2.071,-2.336 -3.489,-3.061 m -8.982,4.25 c -0.807,-0.091 -1.707,-0.058 -2.493,0.417 -0.799,0.456 -1.257,1.4 -1.283,2.242 -0.042,0.856 0.158,1.66 0.46,2.392 0.597,1.477 1.546,2.728 2.587,3.855 -0.773,-1.326 -1.504,-2.675 -1.949,-4.08 -0.209,-0.702 -0.357,-1.424 -0.28,-2.098 0.058,-0.671 0.366,-1.264 0.916,-1.568 1.117,-0.654 2.713,-0.333 4.035,0.218 1.362,0.573 2.614,1.443 3.778,2.446 -0.914,-1.231 -2.072,-2.335 -3.488,-3.06 -0.702,-0.373 -1.469,-0.638 -2.283,-0.764 m -29.28,-7.089 2.863,3.731 c 1.594,-1.077 3.199,-2.131 4.772,-3.225 l -2.905,-4.202 c -1.594,1.214 -3.156,2.468 -4.73,3.696 m -15.88,22.526 -0.662,2.5 c 0.022,0.015 0.043,0.029 0.065,0.043 0.512,-0.666 1.028,-1.325 1.549,-1.976 -0.317,-0.189 -0.636,-0.377 -0.952,-0.567 m -18.084,22.61 c 1.32,0.571 2.632,1.153 3.939,1.746 1.109,-2.25 2.27,-4.433 3.471,-6.561 -0.777,-0.191 -1.553,-0.392 -2.33,-0.577 -0.129,-0.034 -0.258,-0.063 -0.387,-0.096 l -1.235,3.327 c -0.739,-0.373 -1.492,-0.743 -2.244,-1.113 z m -2.845,9.548 c 0.97,0.265 1.937,0.54 2.9,0.823 0.674,-1.641 1.366,-3.259 2.087,-4.841 -1.222,-0.2 -2.445,-0.401 -3.665,-0.584 z m 0.104,8.2 c 0.435,-1.254 0.883,-2.49 1.345,-3.713 -0.612,-0.035 -1.223,-0.06 -1.834,-0.089 l 0.013,1.748 z m 14.542,-35.113 -0.499,-0.303 c -0.15,0.328 -0.291,0.655 -0.439,0.982 -0.266,0.591 -0.536,1.182 -0.792,1.774 l 1.16,-1.644 z m -5.22,6.792 c 0.144,0.078 0.289,0.153 0.432,0.229 0.916,0.514 1.827,1.03 2.735,1.551 0.559,-0.914 1.123,-1.821 1.699,-2.711 -1.317,-0.509 -2.641,-1.018 -3.951,-1.532 z m 58.289,-8.455 c -1.112,-1.372 -2.499,-2.576 -4.142,-3.364 -0.816,-0.409 -1.698,-0.696 -2.619,-0.85 -0.92,-0.143 -1.911,-0.118 -2.856,0.266 -0.461,0.213 -0.9,0.517 -1.23,0.937 -0.318,0.426 -0.518,0.924 -0.598,1.426 -0.119,1.006 0.115,1.952 0.473,2.795 0.711,1.701 1.875,3.09 3.121,4.338 -0.948,-1.487 -1.864,-3.005 -2.393,-4.608 -0.247,-0.797 -0.407,-1.627 -0.269,-2.371 0.084,-0.363 0.217,-0.696 0.432,-0.974 0.223,-0.272 0.525,-0.475 0.863,-0.625 0.687,-0.297 1.517,-0.349 2.332,-0.246 0.822,0.085 1.634,0.33 2.429,0.627 1.588,0.621 3.071,1.552 4.457,2.649 M -110.8,-96.519 c -0.799,0.455 -1.257,1.401 -1.283,2.242 -0.042,0.856 0.158,1.66 0.459,2.393 0.597,1.476 1.548,2.728 2.588,3.854 -0.773,-1.325 -1.504,-2.675 -1.95,-4.079 -0.209,-0.702 -0.356,-1.425 -0.279,-2.098 0.057,-0.671 0.367,-1.264 0.916,-1.569 1.119,-0.654 2.713,-0.333 4.036,0.218 1.362,0.573 2.614,1.443 3.777,2.447 -0.915,-1.232 -2.071,-2.336 -3.489,-3.061 -0.702,-0.373 -1.469,-0.638 -2.282,-0.764 -0.806,-0.091 -1.707,-0.058 -2.493,0.417 m -19.17,22.604 c 0.176,0.834 0.579,1.556 1.069,2.171 0.973,1.246 2.247,2.148 3.562,2.901 -1.119,-1.023 -2.209,-2.083 -3.012,-3.296 -0.388,-0.606 -0.714,-1.254 -0.81,-1.914 -0.107,-0.652 0.043,-1.299 0.479,-1.758 0.867,-0.962 2.435,-1.207 3.853,-1.121 1.455,0.091 2.904,0.514 4.305,1.103 -1.234,-0.883 -2.671,-1.562 -4.234,-1.778 -0.778,-0.12 -1.584,-0.116 -2.383,0.041 -0.785,0.181 -1.603,0.509 -2.193,1.181 -0.606,0.655 -0.816,1.649 -0.636,2.47 m 7.853,-10.64 c -0.785,0.183 -1.603,0.512 -2.194,1.183 -0.605,0.654 -0.815,1.647 -0.635,2.472 0.176,0.832 0.58,1.552 1.069,2.17 0.973,1.246 2.247,2.147 3.563,2.9 -1.12,-1.024 -2.21,-2.083 -3.013,-3.295 -0.388,-0.607 -0.714,-1.254 -0.81,-1.915 -0.106,-0.651 0.043,-1.298 0.479,-1.757 0.867,-0.963 2.435,-1.206 3.853,-1.121 1.455,0.089 2.905,0.513 4.305,1.102 -1.234,-0.883 -2.671,-1.561 -4.234,-1.778 -0.778,-0.119 -1.584,-0.116 -2.383,0.039 m 7.11,-7.368 c -0.807,-0.091 -1.707,-0.057 -2.493,0.417 -0.799,0.456 -1.257,1.401 -1.283,2.242 -0.042,0.856 0.158,1.66 0.46,2.393 0.596,1.476 1.546,2.728 2.587,3.853 -0.772,-1.324 -1.504,-2.673 -1.95,-4.08 -0.209,-0.7 -0.356,-1.424 -0.278,-2.095 0.056,-0.672 0.365,-1.265 0.915,-1.571 1.117,-0.653 2.713,-0.332 4.035,0.22 1.362,0.571 2.614,1.442 3.778,2.446 -0.914,-1.232 -2.073,-2.336 -3.489,-3.061 -0.701,-0.373 -1.468,-0.637 -2.282,-0.764 m 3.06,-23.91 -2.362,-4.376 -0.959,0.575 -4.067,2.434 -0.131,0.079 2.687,4.474 0.123,0.205 5.064,-2.732 z m -5.889,39.494 c 0.132,-0.326 0.357,-0.611 0.635,-0.854 0.567,-0.491 1.344,-0.787 2.152,-0.933 0.809,-0.165 1.658,-0.177 2.506,-0.13 1.7,0.117 3.395,0.563 5.046,1.193 -1.472,-0.976 -3.155,-1.709 -4.961,-1.968 -0.899,-0.145 -1.825,-0.157 -2.752,-0.028 -0.921,0.139 -1.858,0.459 -2.645,1.109 -0.376,0.341 -0.705,0.764 -0.894,1.262 -0.175,0.502 -0.217,1.038 -0.142,1.54 0.187,0.996 0.694,1.828 1.286,2.525 1.189,1.41 2.716,2.389 4.277,3.206 -1.348,-1.136 -2.676,-2.31 -3.66,-3.681 -0.476,-0.686 -0.877,-1.429 -0.968,-2.181 -0.03,-0.371 -0.002,-0.73 0.12,-1.06 m -6.084,7.644 c 0.132,-0.327 0.359,-0.61 0.636,-0.855 0.567,-0.488 1.344,-0.787 2.152,-0.93 0.809,-0.167 1.657,-0.178 2.506,-0.131 1.7,0.116 3.394,0.562 5.045,1.194 -1.471,-0.978 -3.155,-1.71 -4.961,-1.97 -0.898,-0.145 -1.825,-0.156 -2.751,-0.028 -0.921,0.14 -1.859,0.461 -2.645,1.108 -0.377,0.342 -0.705,0.766 -0.894,1.265 -0.176,0.501 -0.217,1.036 -0.143,1.538 0.188,0.997 0.694,1.829 1.287,2.525 1.188,1.411 2.715,2.388 4.277,3.206 -1.348,-1.136 -2.676,-2.31 -3.662,-3.68 -0.474,-0.688 -0.875,-1.43 -0.967,-2.182 -0.03,-0.371 -0.002,-0.73 0.12,-1.06 m -8.323,-1.962 c -0.785,0.182 -1.603,0.51 -2.193,1.182 -0.606,0.655 -0.815,1.648 -0.636,2.471 0.176,0.833 0.58,1.554 1.069,2.17 0.914,1.169 2.093,2.027 3.321,2.753 -0.02,0.03 -0.033,0.063 -0.052,0.095 -1.215,-0.855 -2.62,-1.512 -4.15,-1.724 -0.778,-0.119 -1.584,-0.116 -2.383,0.041 -0.785,0.181 -1.603,0.509 -2.193,1.183 -0.605,0.653 -0.815,1.647 -0.636,2.468 0.176,0.834 0.58,1.555 1.069,2.17 0.847,1.084 1.923,1.899 3.054,2.591 -0.074,0.054 -0.153,0.096 -0.225,0.155 -0.376,0.34 -0.704,0.765 -0.893,1.264 -0.176,0.501 -0.218,1.035 -0.143,1.538 0.187,0.997 0.693,1.829 1.286,2.527 1.189,1.408 2.716,2.386 4.278,3.205 -1.349,-1.137 -2.677,-2.311 -3.663,-3.681 -0.474,-0.687 -0.875,-1.431 -0.966,-2.183 -0.03,-0.371 -0.002,-0.729 0.12,-1.059 0.132,-0.325 0.359,-0.611 0.635,-0.855 0.567,-0.488 1.344,-0.787 2.152,-0.931 0.809,-0.166 1.658,-0.177 2.506,-0.13 1.7,0.116 3.395,0.561 5.046,1.193 -1.472,-0.976 -3.156,-1.709 -4.961,-1.97 -0.899,-0.144 -1.825,-0.155 -2.752,-0.026 -0.799,0.12 -1.605,0.392 -2.319,0.882 -0.972,-0.906 -1.9,-1.85 -2.605,-2.913 -0.388,-0.607 -0.714,-1.254 -0.809,-1.915 -0.107,-0.653 0.042,-1.298 0.478,-1.757 0.867,-0.962 2.436,-1.206 3.854,-1.122 1.423,0.089 2.839,0.498 4.21,1.067 -0.096,0.155 -0.197,0.31 -0.264,0.486 -0.176,0.502 -0.217,1.035 -0.143,1.539 0.188,0.995 0.694,1.827 1.287,2.525 1.189,1.409 2.715,2.386 4.277,3.204 -1.349,-1.136 -2.677,-2.309 -3.662,-3.681 -0.475,-0.686 -0.875,-1.429 -0.967,-2.18 -0.03,-0.372 -0.002,-0.732 0.12,-1.06 0.132,-0.326 0.359,-0.611 0.636,-0.855 0.567,-0.489 1.343,-0.787 2.152,-0.932 0.808,-0.165 1.658,-0.176 2.505,-0.131 1.7,0.117 3.395,0.563 5.046,1.196 -1.471,-0.977 -3.155,-1.711 -4.96,-1.971 -0.899,-0.145 -1.826,-0.154 -2.753,-0.027 -0.921,0.139 -1.858,0.46 -2.644,1.109 -0.2,0.181 -0.381,0.389 -0.54,0.613 -1.043,-0.963 -2.048,-1.961 -2.799,-3.096 -0.388,-0.606 -0.714,-1.253 -0.809,-1.914 -0.107,-0.652 0.042,-1.298 0.479,-1.757 0.866,-0.963 2.435,-1.205 3.853,-1.122 1.455,0.09 2.904,0.514 4.304,1.103 -1.233,-0.884 -2.671,-1.561 -4.234,-1.778 -0.777,-0.119 -1.583,-0.116 -2.383,0.04 m -8.746,-28.668 2.48,2.51 4.423,-3.727 -1.691,-1.91 -1.042,-1.177 -0.247,0.255 z m 38.641,9.593 c 0.083,-0.366 0.217,-0.7 0.432,-0.977 0.225,-0.271 0.525,-0.475 0.862,-0.625 0.689,-0.296 1.518,-0.35 2.332,-0.245 0.822,0.085 1.635,0.329 2.43,0.626 1.588,0.621 3.071,1.553 4.457,2.65 -1.11,-1.372 -2.498,-2.576 -4.144,-3.364 -0.813,-0.407 -1.695,-0.694 -2.617,-0.851 -0.92,-0.142 -1.911,-0.117 -2.855,0.267 -0.462,0.212 -0.903,0.519 -1.231,0.938 -0.318,0.424 -0.517,0.922 -0.597,1.424 -0.119,1.008 0.114,1.953 0.47,2.796 0.713,1.7 1.877,3.09 3.121,4.339 -0.945,-1.488 -1.861,-3.006 -2.391,-4.607 -0.247,-0.799 -0.405,-1.628 -0.269,-2.371 m 8.157,-5.365 c 0.084,-0.363 0.216,-0.697 0.431,-0.975 0.224,-0.272 0.526,-0.475 0.864,-0.625 0.686,-0.297 1.517,-0.349 2.332,-0.245 0.82,0.085 1.633,0.328 2.429,0.626 1.587,0.62 3.071,1.553 4.457,2.65 -1.112,-1.372 -2.499,-2.576 -4.144,-3.365 -0.814,-0.408 -1.696,-0.695 -2.617,-0.85 -0.92,-0.142 -1.911,-0.117 -2.856,0.267 -0.461,0.212 -0.9,0.518 -1.23,0.937 -0.319,0.426 -0.518,0.924 -0.598,1.426 -0.119,1.006 0.115,1.952 0.473,2.794 0.711,1.701 1.875,3.091 3.121,4.339 -0.948,-1.487 -1.864,-3.005 -2.393,-4.608 -0.247,-0.797 -0.407,-1.626 -0.269,-2.371 m 8.093,-5.472 c 0.082,-0.363 0.217,-0.697 0.431,-0.975 0.224,-0.272 0.526,-0.475 0.863,-0.625 0.687,-0.297 1.518,-0.349 2.332,-0.245 0.822,0.084 1.635,0.328 2.43,0.626 1.587,0.62 3.07,1.553 4.457,2.65 -1.112,-1.372 -2.499,-2.576 -4.144,-3.364 -0.814,-0.408 -1.695,-0.696 -2.618,-0.852 -0.919,-0.142 -1.91,-0.116 -2.854,0.268 -0.462,0.211 -0.903,0.518 -1.233,0.937 -0.316,0.426 -0.515,0.923 -0.595,1.425 -0.119,1.007 0.114,1.952 0.47,2.795 0.713,1.7 1.877,3.091 3.121,4.339 -0.945,-1.488 -1.861,-3.005 -2.391,-4.608 -0.247,-0.797 -0.407,-1.626 -0.269,-2.371 m 307.199,61.794 c 1.504,0.625 2.979,1.317 4.386,2.183 2.816,1.697 5.478,3.746 7.753,6.246 2.2,2.432 4.101,5.223 5.121,8.459 1.998,1.483 3.951,3.023 5.837,4.641 2.9,2.478 5.597,5.208 8.021,8.135 2.413,2.931 4.531,6.112 6.072,9.532 -2.021,-3.163 -4.524,-5.935 -7.251,-8.414 -2.739,-2.47 -5.68,-4.691 -8.79,-6.652 -3.105,-1.964 -6.318,-3.746 -9.607,-5.373 -3.305,-1.606 -6.668,-3.078 -10.078,-4.439 -6.836,-2.686 -13.834,-4.952 -20.919,-6.869 -0.154,-0.041 -0.308,-0.078 -0.46,-0.119 0.979,0.687 1.956,1.38 2.925,2.08 2.952,0.995 5.896,2.041 8.823,3.187 3.576,1.455 7.262,2.785 10.873,4.403 3.596,1.642 6.978,3.813 9.979,6.517 3.004,2.688 5.696,5.865 7.848,9.412 2.116,3.553 3.742,7.551 3.934,11.795 l -1.132,0.608 c -1.618,-1.123 -3.146,-2.153 -4.635,-3.13 0.831,1.057 1.649,2.124 2.439,3.214 2.526,3.439 4.792,7.077 6.685,10.886 1.894,3.804 3.425,7.785 4.352,11.883 -1.45,-3.947 -3.45,-7.627 -5.757,-11.066 -2.307,-3.442 -4.933,-6.649 -7.785,-9.634 -5.666,-6.004 -12.084,-11.24 -18.782,-16.032 -6.72,-4.774 -13.758,-9.091 -20.985,-13.042 -0.232,-0.127 -0.468,-0.245 -0.7,-0.372 0.998,1.113 2.002,2.22 2.979,3.351 1.04,1.207 2.057,2.432 3.076,3.655 2.7,1.7 5.382,3.442 8.022,5.278 3.537,2.505 7.206,4.936 10.716,7.659 3.514,2.705 6.606,6 9.164,9.732 2.564,3.72 4.679,7.859 6.087,12.282 1.382,4.412 2.131,9.14 1.365,13.822 l -1.378,0.398 c -2.369,-2.534 -4.531,-4.823 -6.658,-7.007 0.131,0.302 0.273,0.6 0.402,0.904 3.725,8.547 6.369,17.622 7.098,26.812 -1.81,-9.045 -5.43,-17.518 -10,-25.352 -2.253,-3.939 -4.794,-7.705 -7.457,-11.366 -0.823,-1.136 -1.667,-2.253 -2.523,-3.362 -0.018,-0.019 -0.038,-0.037 -0.057,-0.056 -0.69,-0.69 -1.327,-1.414 -2.012,-2.121 -0.674,-0.711 -1.32,-1.45 -1.951,-2.204 -0.662,-0.735 -1.3,-1.494 -1.934,-2.263 -2.548,-3.069 -5.144,-6.214 -8.114,-8.991 -2.943,-2.805 -5.995,-5.535 -9.139,-8.184 -2.217,-1.921 -4.492,-3.793 -6.793,-5.64 0.191,1.492 0.37,2.996 0.527,4.524 6.297,5.467 12.315,11.321 17.867,17.697 3.127,3.581 6.458,7.074 9.482,10.883 3.033,3.795 5.57,8.008 7.334,12.631 1.77,4.608 3.105,9.438 3.588,14.463 0.475,5.004 0.29,10.149 -1.324,15.072 l -1.569,0.205 c -2.876,-4.19 -5.284,-7.994 -7.707,-11.711 -2.367,-3.721 -4.817,-7.299 -7.126,-10.92 -2.316,-3.617 -4.462,-7.331 -6.38,-11.278 -1.91,-3.947 -3.919,-7.947 -6.367,-11.672 -2.424,-3.739 -4.986,-7.426 -7.652,-11.062 -2.646,-3.652 -5.379,-7.271 -8.205,-10.838 -2.753,-3.498 -5.601,-6.945 -8.522,-10.346 -0.466,-0.424 -0.934,-0.848 -1.406,-1.271 2.729,3.949 5.365,7.959 7.89,12.039 6.482,10.484 12.249,21.429 16.809,32.855 2.236,5.729 4.237,11.544 5.75,17.487 1.491,5.945 2.572,11.979 3.123,18.043 -1.089,-5.996 -2.694,-11.858 -4.677,-17.571 -2.01,-5.709 -4.481,-11.232 -7.159,-16.628 -5.452,-10.761 -12.011,-20.903 -19.219,-30.528 -5.476,-7.306 -11.327,-14.322 -17.454,-21.078 1.306,2.157 2.571,4.336 3.767,6.553 2.779,5.265 5.198,10.713 7.203,16.298 2.029,5.58 3.442,11.368 4.44,17.183 l 0.639,4.379 0.353,4.406 c 0.159,1.463 0.129,2.937 0.151,4.406 -0.01,1.469 0.094,2.932 -0.046,4.396 l -0.268,4.381 c -0.127,1.455 -0.373,2.901 -0.554,4.347 l -0.293,2.163 c -0.129,0.716 -0.297,1.427 -0.442,2.14 l -0.905,4.261 0.503,-4.323 c 0.079,-0.719 0.178,-1.433 0.239,-2.153 l 0.09,-2.168 c 0.045,-1.444 0.154,-2.881 0.144,-4.321 l -0.138,-4.315 c 0.003,-1.436 -0.235,-2.864 -0.358,-4.29 -0.155,-1.427 -0.257,-2.852 -0.547,-4.259 l -0.736,-4.222 -1.012,-4.159 c -1.487,-5.501 -3.347,-10.887 -5.776,-16.018 -2.409,-5.136 -5.185,-10.083 -8.279,-14.819 -6.286,-9.418 -13.679,-18.053 -21.867,-25.838 -4.09,-3.895 -8.35,-7.608 -12.769,-11.095 -2.214,-1.739 -4.451,-3.44 -6.729,-5.067 -1.139,-0.809 -2.283,-1.61 -3.432,-2.382 -1.124,-0.754 -2.36,-1.57 -3.371,-2.172 l 0.582,-0.874 c -9.462,-3.909 -17.91,-5.899 -24.374,-5.162 -16.855,1.918 -28.466,24.872 -39.395,4.989 -2.134,-3.884 -3.643,-7.69 -4.667,-11.417 -2.073,5.398 -4.893,10.792 -8.656,16.176 -2.465,3.562 -5.421,7.12 -8.852,10.674 -1.018,1.028 -2.065,2.054 -3.164,3.082 1.687,2.609 2.859,5.211 3.641,7.804 0.467,1.586 0.733,3.168 0.718,4.747 -0.009,1.578 -0.313,3.151 -0.819,4.721 -1.051,3.139 -2.626,6.271 -3.599,9.411 -1.455,4.914 -4.329,9.807 -6.604,14.709 C 12.13,-0.559 11.684,-0.902 11.227,-1.234 10.341,-1.846 9.459,-2.461 8.531,-3.02 8.066,-3.3 7.602,-3.576 7.103,-3.832 6.84,-3.954 6.607,-4.076 6.248,-4.168 6.156,-4.191 6.043,-4.21 5.881,-4.187 5.738,-4.17 5.691,-4.143 5.594,-4.118 5.445,-4.065 5.305,-4.01 5.178,-3.95 c -1.024,0.473 -1.929,1.032 -2.85,1.596 -0.919,0.56 -1.811,1.158 -2.698,1.76 -0.411,0.276 -0.812,0.563 -1.218,0.844 -2.154,-5.204 -5.064,-10.421 -6.424,-15.611 -0.873,-3.172 -2.347,-6.351 -3.299,-9.522 -0.455,-1.586 -0.709,-3.168 -0.668,-4.745 0.036,-1.578 0.353,-3.151 0.87,-4.722 0.9,-2.673 2.218,-5.341 4.106,-8.002 -0.892,-0.877 -1.746,-1.755 -2.584,-2.632 -3.366,-3.616 -6.257,-7.226 -8.657,-10.832 -3.017,-4.487 -5.395,-8.966 -7.242,-13.442 -0.98,2.994 -2.279,6.037 -3.978,9.13 -10.929,19.883 -22.541,-3.071 -39.395,-4.989 -8.304,-0.946 -19.879,2.601 -32.678,8.95 -0.789,0.543 -1.578,1.084 -2.363,1.64 -2.277,1.627 -4.515,3.328 -6.728,5.067 -4.42,3.487 -8.68,7.2 -12.77,11.095 -8.188,7.785 -15.581,16.42 -21.868,25.838 -3.093,4.736 -5.869,9.683 -8.278,14.819 -2.43,5.131 -4.289,10.517 -5.776,16.018 l -1.012,4.159 -0.736,4.222 c -0.29,1.407 -0.392,2.832 -0.547,4.259 -0.123,1.426 -0.362,2.854 -0.358,4.29 l -0.138,4.315 c -0.01,1.44 0.1,2.877 0.144,4.321 l 0.09,2.168 c 0.061,0.72 0.161,1.434 0.239,2.153 l 0.503,4.323 -0.905,-4.261 c -0.146,-0.713 -0.313,-1.424 -0.442,-2.14 l -0.293,-2.163 c -0.181,-1.446 -0.427,-2.892 -0.554,-4.347 l -0.269,-4.381 c -0.139,-1.464 -0.035,-2.927 -0.045,-4.396 0.022,-1.469 -0.008,-2.943 0.151,-4.406 l 0.352,-4.406 0.64,-4.379 c 0.999,-5.815 2.412,-11.603 4.439,-17.183 1.121,-3.121 2.384,-6.192 3.753,-9.22 -1.971,2.45 -3.904,4.93 -5.791,7.447 -7.207,9.625 -13.767,19.767 -19.218,30.528 -2.679,5.396 -5.15,10.919 -7.159,16.628 -1.984,5.713 -3.588,11.575 -4.678,17.571 0.552,-6.064 1.634,-12.098 3.123,-18.043 1.514,-5.943 3.515,-11.758 5.75,-17.487 4.561,-11.426 10.327,-22.371 16.81,-32.855 2.525,-4.08 5.16,-8.09 7.889,-12.039 -0.471,0.423 -0.939,0.847 -1.405,1.271 -2.921,3.401 -5.769,6.848 -8.522,10.346 -2.827,3.567 -5.56,7.186 -8.206,10.838 -2.665,3.636 -5.228,7.323 -7.651,11.062 -2.448,3.725 -4.458,7.725 -6.367,11.672 -1.918,3.947 -4.065,7.661 -6.381,11.278 -2.308,3.621 -4.759,7.199 -7.126,10.92 -2.423,3.717 -4.831,7.521 -7.706,11.711 l -0.289,-0.038 -0.749,-0.098 -0.532,-0.069 c -1.613,-4.923 -1.798,-10.068 -1.323,-15.072 0.483,-5.025 1.818,-9.855 3.588,-14.463 1.763,-4.623 4.3,-8.836 7.334,-12.631 3.023,-3.809 6.355,-7.302 9.482,-10.883 5.552,-6.376 11.569,-12.23 17.866,-17.697 0.157,-1.528 0.337,-3.032 0.527,-4.524 -2.3,1.847 -4.576,3.719 -6.793,5.64 -3.143,2.649 -6.195,5.379 -9.139,8.184 -2.97,2.777 -5.566,5.922 -8.114,8.991 -0.633,0.769 -1.272,1.528 -1.932,2.263 -0.633,0.754 -1.278,1.493 -1.952,2.204 -0.686,0.707 -1.323,1.431 -2.013,2.121 -0.019,0.019 -0.038,0.037 -0.057,0.056 -0.855,1.109 -1.7,2.226 -2.521,3.362 -2.664,3.661 -5.205,7.427 -7.458,11.366 -4.571,7.834 -8.191,16.307 -10,25.352 0.728,-9.19 3.373,-18.265 7.097,-26.812 0.13,-0.304 0.272,-0.602 0.404,-0.904 -2.128,2.184 -4.29,4.473 -6.66,7.007 l -1.094,-0.316 -0.075,-0.022 -0.208,-0.06 c -0.767,-4.682 -0.018,-9.41 1.364,-13.822 1.408,-4.423 3.523,-8.562 6.088,-12.282 2.557,-3.732 5.649,-7.027 9.165,-9.732 3.509,-2.723 7.177,-5.154 10.714,-7.659 2.641,-1.836 5.322,-3.578 8.022,-5.278 1.02,-1.223 2.036,-2.448 3.076,-3.655 0.978,-1.131 1.982,-2.238 2.98,-3.351 -0.232,0.127 -0.469,0.245 -0.701,0.372 -7.227,3.951 -14.265,8.268 -20.985,13.042 -6.698,4.792 -13.116,10.028 -18.782,16.032 -2.852,2.985 -5.478,6.192 -7.784,9.634 -2.308,3.439 -4.308,7.119 -5.758,11.066 0.929,-4.098 2.458,-8.079 4.353,-11.883 1.892,-3.809 4.159,-7.447 6.684,-10.886 0.79,-1.09 1.609,-2.157 2.44,-3.214 -1.49,0.977 -3.018,2.007 -4.635,3.13 l -0.698,-0.375 -0.309,-0.164 -0.126,-0.069 c 0.193,-4.244 1.818,-8.242 3.934,-11.795 2.152,-3.547 4.845,-6.724 7.849,-9.412 3,-2.704 6.382,-4.875 9.979,-6.517 3.61,-1.618 7.296,-2.948 10.875,-4.403 2.925,-1.146 5.868,-2.192 8.82,-3.187 0.97,-0.7 1.946,-1.393 2.927,-2.08 -0.154,0.041 -0.308,0.078 -0.461,0.119 -7.086,1.917 -14.083,4.183 -20.92,6.869 -3.408,1.361 -6.773,2.833 -10.076,4.439 -3.29,1.627 -6.503,3.409 -9.609,5.373 -3.11,1.961 -6.05,4.182 -8.789,6.652 -2.727,2.479 -5.231,5.251 -7.251,8.414 1.541,-3.42 3.659,-6.601 6.072,-9.532 2.424,-2.927 5.12,-5.657 8.02,-8.135 1.886,-1.618 3.839,-3.158 5.837,-4.641 1.021,-3.236 2.921,-6.027 5.121,-8.459 2.276,-2.5 4.937,-4.549 7.753,-6.246 1.408,-0.866 2.882,-1.558 4.387,-2.183 1.516,-0.569 3.065,-1.063 4.643,-1.405 1.336,-0.299 2.675,-0.545 4.012,-0.776 -1.981,0.229 -3.96,0.483 -5.929,0.804 -2.937,0.462 -5.853,1.048 -8.74,1.763 -2.891,0.701 -5.751,1.543 -8.547,2.574 -5.607,2.019 -10.997,4.801 -15.666,8.745 3.888,-4.709 8.893,-8.58 14.281,-11.684 2.689,-1.58 5.485,-2.98 8.341,-4.243 2.852,-1.275 5.764,-2.425 8.715,-3.451 1.434,-0.505 2.875,-0.984 4.324,-1.439 -0.519,0.041 -1.038,0.08 -1.559,0.11 -2.551,0.16 -5.126,0.244 -7.773,0.349 -2.649,0.106 -5.346,0.228 -8.4,0.184 -0.004,10e-4 -0.007,0.003 -0.011,0.005 l -0.208,-0.404 -0.247,-0.48 -0.003,-0.005 c 0.004,-0.002 0.008,-0.003 0.012,-0.005 1.827,-2.508 4.22,-4.408 6.779,-5.959 1.939,-1.146 3.989,-2.055 6.092,-2.772 -3.352,-0.197 -6.718,-0.234 -10.086,-0.012 -2.676,0.198 -5.36,0.517 -8.014,1.06 -2.649,0.559 -5.274,1.309 -7.843,2.3 2.321,-1.473 4.792,-2.752 7.359,-3.851 2.573,-1.087 5.241,-1.959 7.953,-2.713 5.434,-1.464 11.045,-2.325 16.684,-2.774 h 0.012 c -0.352,-0.087 -0.705,-0.178 -1.059,-0.281 l -3.62,-1.094 c -1.21,-0.367 -2.457,-0.894 -3.7,-1.321 -1.251,-0.464 -2.534,-0.972 -3.889,-1.689 l -0.117,-1.082 c 1.207,-0.887 2.486,-1.566 3.798,-2.199 0.5,-0.242 1.002,-0.436 1.505,-0.614 -1.098,-0.259 -2.199,-0.509 -3.305,-0.73 -4.987,-0.988 -10.056,-1.704 -15.229,-1.747 5.063,-1.037 10.299,-1.414 15.538,-1.489 5.245,-0.061 10.482,0.3 15.718,0.787 5.236,0.504 10.436,1.273 15.631,2.159 2.353,0.4 4.698,0.847 7.043,1.327 -0.867,-0.398 -1.734,-0.795 -2.598,-1.187 -0.698,-0.314 -1.404,-0.614 -2.103,-0.924 -1.327,-0.209 -2.659,-0.383 -3.981,-0.548 -2.282,-0.34 -4.472,-0.864 -6.587,-1.753 -2.121,-0.803 -4.203,-1.866 -6.288,-2.979 -1.883,-1.102 -3.765,-2.201 -5.68,-3.768 -5.075,-1.782 -10.224,-3.379 -15.495,-4.657 6.611,0.073 13.244,0.653 19.857,1.493 0.917,-0.196 1.833,-0.354 2.739,-0.444 2.535,-0.306 4.995,-0.2 7.442,0.041 2.416,0.312 4.771,0.938 6.973,1.968 1.324,0.586 2.616,1.239 3.909,1.87 0.726,0.14 1.454,0.269 2.18,0.414 1.806,0.363 3.6,0.736 5.394,1.119 -4.349,-1.742 -8.688,-3.502 -13.012,-5.298 -9.506,-3.958 -18.978,-8.026 -28.232,-12.478 8.471,2.045 16.989,3.769 25.526,5.387 -1.784,-1.504 -3.537,-3.095 -5.152,-5.213 l 0.352,-0.976 c 2.721,-0.569 5.308,-0.601 7.799,-0.385 2.504,0.202 4.895,0.696 7.232,1.343 2.315,0.677 4.514,1.651 6.547,2.952 2.047,1.281 4.017,2.698 6.087,3.892 l 5.544,3.368 c 1.984,0.322 3.966,0.641 5.939,0.947 -0.324,-0.194 -0.646,-0.391 -0.969,-0.586 l 3.759,-4.046 0.193,-0.207 -2.001,-1.734 -0.545,0.767 -2.908,4.095 1.394,1.06 c -1.662,-1.005 -3.319,-2.015 -4.978,-3.035 -4.262,-2.629 -8.49,-5.307 -12.683,-8.031 -8.371,-5.465 -16.62,-11.134 -24.465,-17.247 6.907,3.281 13.93,6.225 21.013,8.995 -0.005,-0.005 -0.009,-0.01 -0.013,-0.014 -1.669,-1.9 -3.248,-3.944 -4.534,-6.462 l 0.535,-0.86 c 2.82,0.05 5.345,0.575 7.782,1.244 2.425,0.687 4.735,1.561 6.945,2.594 2.214,1.028 4.253,2.336 6.133,3.898 1.689,1.402 3.338,2.868 5.063,4.211 -3.543,-2.937 -7.044,-5.915 -10.487,-8.952 -7.823,-6.921 -15.387,-14.141 -22.343,-21.827 8.402,6.071 17.174,11.474 26.12,16.537 0.135,0.076 0.271,0.148 0.405,0.223 -1.424,-1.648 -2.752,-3.403 -3.954,-5.296 -1.341,-2.133 -2.553,-4.409 -3.404,-7.07 -0.002,-0.002 -0.005,-0.005 -0.007,-0.007 l 0.003,-0.005 0.512,-0.566 0.154,-0.171 c 0.003,0.002 0.006,0.005 0.009,0.008 2.744,0.562 5.109,1.529 7.38,2.6 2.255,1.094 4.373,2.337 6.371,3.713 0.928,0.639 1.808,1.332 2.65,2.068 -0.346,-0.435 -0.678,-0.879 -1.026,-1.313 -3.065,-3.777 -6.232,-7.483 -9.556,-11.063 -3.351,-3.546 -6.849,-6.973 -10.622,-10.156 4.372,2.279 8.605,4.899 12.735,7.687 4.103,2.82 8.099,5.816 12.019,8.916 3.292,2.632 6.515,5.356 9.698,8.133 -1.684,-1.612 -3.499,-3.11 -5.318,-4.541 -1.868,-1.559 -3.566,-3.202 -5.021,-5.123 -0.347,-0.502 -0.737,-0.94 -1.102,-1.419 -0.353,-0.488 -0.722,-0.962 -1.067,-1.467 -0.344,-0.504 -0.693,-1.013 -1.026,-1.533 -0.355,-0.49 -0.695,-1.005 -1.033,-1.53 -0.336,-0.526 -0.666,-1.066 -0.987,-1.627 -0.316,-0.57 -0.637,-1.133 -0.974,-1.681 -0.647,-1.141 -1.288,-2.333 -1.846,-3.735 l 0.027,-0.042 0.55,-0.835 v 10e-4 l 0.028,-0.042 c 2.919,0.146 5.685,0.868 8.157,1.97 1.273,0.521 2.483,1.136 3.611,1.834 0.956,0.582 1.899,1.197 2.803,1.847 -0.844,-1.499 -1.708,-2.99 -2.615,-4.457 -2.445,-3.869 -5.102,-7.627 -8.167,-11.13 3.787,2.693 7.331,5.802 10.703,9.099 1.854,1.846 3.645,3.76 5.394,5.714 -0.248,-0.484 -0.48,-0.985 -0.709,-1.496 -0.898,-2.187 -1.833,-4.335 -2.459,-7.079 l 0.029,-0.032 0.266,-0.3 0.425,-0.48 c 2.719,0.436 5.197,1.401 7.364,2.673 1.115,0.616 2.169,1.307 3.132,2.068 0.372,0.288 0.736,0.587 1.099,0.886 -2.226,-5.363 -4.757,-10.613 -7.863,-15.616 3.243,3.163 6.228,6.642 9.063,10.246 2.814,3.62 5.441,7.387 7.988,11.221 2.136,3.246 4.166,6.563 6.151,9.913 l -3.066,1.376 1.896,4.067 0.575,1.237 5.286,-2.279 -0.709,-1.708 -1.568,-3.776 -1.752,0.786 c -0.089,-0.137 -0.175,-0.276 -0.263,-0.413 -1.197,-1.861 -2.584,-3.624 -3.95,-5.356 -1.332,-1.763 -2.449,-3.599 -3.275,-5.628 -0.189,-0.521 -0.415,-1.008 -0.62,-1.517 -0.186,-0.517 -0.392,-1.024 -0.567,-1.553 -0.173,-0.53 -0.354,-1.058 -0.509,-1.605 -0.181,-0.523 -0.34,-1.065 -0.494,-1.614 -0.566,-2.246 -1.136,-4.485 -1.31,-7.226 l 0.828,-0.679 c 2.574,0.819 4.798,2.106 6.716,3.613 0.752,0.561 1.441,1.169 2.1,1.797 -1.435,-5.223 -3.088,-10.394 -5.139,-15.465 5.263,7.261 9.671,15.218 13.768,23.28 1.346,2.661 2.635,5.35 3.904,8.051 l -1.972,0.645 1.153,3.263 0.837,2.368 5.463,-1.843 -0.886,-2.844 -0.873,-2.806 -1.849,0.604 c -0.856,-1.642 -1.822,-3.239 -2.767,-4.824 -1.099,-1.905 -1.959,-3.877 -2.51,-5.991 -0.121,-0.537 -0.272,-1.056 -0.402,-1.586 -0.116,-0.537 -0.248,-1.068 -0.349,-1.615 -0.097,-0.547 -0.206,-1.092 -0.278,-1.654 -0.101,-0.545 -0.178,-1.104 -0.248,-1.668 -0.238,-2.291 -0.436,-4.597 -0.162,-7.288 l 0.025,-0.015 0.87,-0.492 v 10e-4 l 0.024,-0.015 c 2.379,1.224 4.314,2.818 5.963,4.553 0.11,0.111 0.205,0.229 0.311,0.342 -0.716,-5.025 -1.562,-10.038 -2.641,-15.029 3.949,8.074 7.282,16.507 10.408,24.991 0.891,2.428 1.752,4.865 2.604,7.309 l -1.296,0.28 0.539,2.084 0.898,3.47 5.591,-1.477 -0.859,-3.881 -0.324,-1.462 -1.418,0.307 c -0.664,-1.782 -1.451,-3.532 -2.199,-5.279 -0.858,-2.051 -1.457,-4.151 -1.729,-6.347 -0.307,-2.179 -0.4,-4.431 -0.371,-6.723 0.086,-2.321 0.254,-4.665 0.954,-7.267 l 0.021,-0.007 0.318,-0.114 0.645,-0.226 c 1.608,1.229 2.924,2.601 4.06,4.043 -0.08,-4.751 -0.22,-9.505 -0.461,-14.264 2.6,8.767 4.859,17.666 7.01,26.585 0.622,2.597 1.213,5.205 1.813,7.808 -0.266,0.036 -0.536,0.067 -0.803,0.105 l 0.109,0.62 0.78,4.422 c 1.902,-0.341 3.796,-0.745 5.697,-1.115 l -0.674,-4.672 c -0.237,0.03 -0.473,0.057 -0.709,0.086 -0.035,0.005 -0.072,0.009 -0.11,0.013 l -0.125,-0.574 c -0.472,-2.217 -1.175,-4.407 -1.793,-6.598 -0.605,-2.196 -0.936,-4.417 -0.931,-6.688 -0.02,-2.265 0.164,-4.564 0.52,-6.891 0.398,-2.338 0.918,-4.694 1.999,-7.182 l 0.014,-0.002 0.167,-0.029 0.832,-0.145 c 0.959,1.047 1.763,2.13 2.468,3.234 l 1.148,-10.006 2.276,17.213 c 0.275,0.798 0.533,1.597 0.757,2.404 0.61,2.227 0.893,4.502 0.845,6.811 -0.011,0.795 -0.038,1.591 -0.067,2.386 l 0.566,4.28 c 1.617,-0.291 3.192,-0.55 4.718,-0.776 l 0.25,-1.103 c -0.241,-1.861 -0.606,-3.719 -0.898,-5.578 -0.345,-2.186 -0.392,-4.374 -0.108,-6.568 0.276,-2.194 0.743,-4.391 1.429,-6.593 0.707,-2.204 1.582,-4.412 3.013,-6.633 l 0.008,-0.001 0.117,-0.002 0.89,-0.018 c 0.423,0.624 0.791,1.248 1.131,1.874 0.423,-1.704 0.834,-3.413 1.265,-5.114 0.063,2.799 0.149,5.595 0.233,8.391 0.175,0.459 0.345,0.919 0.502,1.378 0.724,2.184 1.228,4.374 1.544,6.567 0.322,2.194 0.314,4.392 0.008,6.594 -0.268,1.932 -0.614,3.864 -0.821,5.794 1.925,-0.164 3.716,-0.269 5.372,-0.327 -0.062,-1.729 -0.236,-3.469 -0.348,-5.206 -0.121,-2.022 0.045,-4.018 0.551,-5.978 0.491,-1.962 1.178,-3.902 2.082,-5.816 0.923,-1.911 2.028,-3.8 3.668,-5.621 v -0.001 h 0.002 l 0.884,0.101 0.108,0.012 c 1.204,2.142 1.854,4.213 2.357,6.265 0.479,2.05 0.742,4.074 0.834,6.079 0.091,2.004 -0.126,3.977 -0.644,5.921 -0.51,1.945 -1.125,3.882 -1.509,5.842 l -0.2,0.971 c 0.037,-0.072 0.068,-0.146 0.106,-0.218 1.211,-2.189 2.556,-4.313 4.21,-6.292 1.613,-1.987 3.516,-3.84 5.833,-5.402 v -0.001 h 10e-4 l 0.43,0.213 0.467,0.231 v 0.002 c 0.251,2.821 0.003,5.31 -0.265,7.789 -0.04,0.293 -0.087,0.582 -0.13,0.873 0.103,-0.411 0.198,-0.822 0.305,-1.233 1.793,-7.153 3.912,-14.302 5.968,-21.453 l 2.105,-6.936 -0.314,0.116 c -3.084,-5.586 -5.953,-11.254 -8.839,-16.914 l -4.223,-8.531 -4.055,-8.593 c -1.327,-2.873 -2.902,-5.654 -4.363,-8.478 -1.461,-2.824 -2.589,-5.771 -3.352,-8.854 -0.769,-3.08 -1.329,-6.239 -1.645,-9.488 -0.293,-3.257 -0.398,-6.584 0.118,-10.142 l 1.125,-0.418 c 2.657,2.313 4.718,4.847 6.592,7.45 -0.022,-0.309 -0.053,-0.616 -0.069,-0.925 -0.158,-3.259 -0.119,-6.572 0.452,-10.059 0.188,-0.818 1.271,-1.953 1.676,-2.779 2.035,1.769 3.904,3.702 5.332,5.697 0.117,0.177 0.221,0.357 0.335,0.534 0.077,-2.425 0.295,-4.883 0.755,-7.403 0.378,-1.639 1.42,-3.489 2.229,-5.141 1.356,1.179 3.003,2.455 3.954,3.786 0.422,0.668 0.814,1.341 1.193,2.016 0.177,-1.527 0.41,-3.062 0.723,-4.613 0.568,-2.458 1.567,-5.025 2.781,-7.503 0.678,0.59 2.102,1.21 2.576,1.874 0.85,1.418 1.573,2.845 2.218,4.277 0.157,-0.866 0.331,-1.732 0.525,-2.599 0.755,-3.278 1.712,-6.561 3.332,-9.865 l 1.201,-0.038 c 1.821,3.197 2.982,6.413 3.943,9.636 0.203,0.701 0.391,1.403 0.568,2.106 0.307,-1.371 0.647,-2.739 1.043,-4.106 0.961,-3.223 2.125,-6.439 3.945,-9.636 l 1.2,0.038 c 1.618,3.304 2.575,6.587 3.332,9.865 0.194,0.867 0.367,1.733 0.525,2.599 0.647,-1.432 1.368,-2.859 2.217,-4.277 0.476,-0.664 1.899,-1.284 2.576,-1.874 1.214,2.478 2.214,5.045 2.782,7.503 0.313,1.551 0.547,3.086 0.722,4.613 0.379,-0.675 0.772,-1.348 1.196,-2.016 0.95,-1.331 2.596,-2.607 3.952,-3.786 0.809,1.652 1.85,3.502 2.228,5.141 0.461,2.52 0.679,4.978 0.754,7.403 0.115,-0.177 0.22,-0.357 0.338,-0.534 1.428,-1.995 3.297,-3.928 5.331,-5.697 0.404,0.826 1.487,1.961 1.677,2.779 0.569,3.487 0.608,6.8 0.451,10.059 -0.017,0.309 -0.048,0.616 -0.069,0.925 1.873,-2.603 3.934,-5.137 6.593,-7.45 l 1.125,0.418 c 0.514,3.558 0.41,6.885 0.117,10.142 -0.317,3.249 -0.876,6.408 -1.646,9.488 -0.763,3.083 -1.889,6.03 -3.351,8.854 -1.461,2.824 -3.037,5.605 -4.364,8.478 l -4.054,8.593 -4.223,8.531 c -2.887,5.66 -5.754,11.328 -8.84,16.914 l -0.027,-0.011 2.596,9.147 c 1.926,7.187 3.917,14.374 5.581,21.557 0.593,2.501 1.14,5.001 1.671,7.502 l 0.475,-0.295 c -0.012,-0.049 -0.028,-0.096 -0.04,-0.144 -0.624,-2.295 -1.045,-4.684 -1.384,-7.123 -0.266,-2.48 -0.516,-4.969 -0.261,-7.791 l 0.893,-0.444 c 2.319,1.562 4.222,3.416 5.834,5.403 1.654,1.979 3,4.103 4.211,6.292 0.037,0.072 0.068,0.146 0.105,0.217 l -0.2,-0.97 c -0.383,-1.96 -0.999,-3.897 -1.509,-5.842 -0.517,-1.944 -0.734,-3.917 -0.644,-5.921 0.091,-2.005 0.356,-4.029 0.834,-6.079 0.504,-2.052 1.153,-4.123 2.358,-6.265 l 0.993,-0.113 c 1.64,1.821 2.746,3.711 3.668,5.622 0.904,1.914 1.591,3.854 2.083,5.816 0.505,1.96 0.672,3.956 0.55,5.978 -0.111,1.737 -0.286,3.477 -0.346,5.206 1.655,0.058 3.446,0.163 5.369,0.327 -0.204,-1.93 -0.551,-3.862 -0.819,-5.794 -0.307,-2.202 -0.314,-4.4 0.008,-6.594 0.317,-2.193 0.82,-4.383 1.543,-6.567 0.157,-0.459 0.327,-0.919 0.503,-1.378 0.083,-2.796 0.17,-5.592 0.233,-8.391 0.43,1.701 0.842,3.41 1.264,5.114 0.341,-0.626 0.708,-1.25 1.132,-1.874 l 1.013,0.021 c 1.433,2.221 2.308,4.429 3.015,6.633 0.686,2.202 1.152,4.399 1.429,6.593 0.283,2.194 0.237,4.382 -0.107,6.568 -0.293,1.859 -0.659,3.717 -0.9,5.578 l 0.25,1.103 c 1.527,0.226 3.102,0.485 4.719,0.776 l 0.566,-4.28 c -0.029,-0.795 -0.057,-1.591 -0.068,-2.386 -0.047,-2.309 0.236,-4.584 0.846,-6.811 0.224,-0.807 0.482,-1.606 0.757,-2.404 l 2.276,-17.213 1.147,10.005 c 0.706,-1.103 1.509,-2.186 2.469,-3.233 l 1.013,0.176 c 1.081,2.488 1.6,4.844 1.998,7.182 0.356,2.327 0.541,4.626 0.52,6.891 0.005,2.271 -0.326,4.492 -0.932,6.688 -0.616,2.191 -1.319,4.381 -1.792,6.598 l -0.128,0.586 c 0.85,0.2 1.711,0.41 2.577,0.628 -1.953,-0.277 -3.914,-0.491 -5.867,-0.739 l -0.676,4.672 c 1.902,0.37 3.795,0.774 5.698,1.115 l 0.888,-5.037 c 0.518,0.13 1.034,0.262 1.556,0.399 0.638,-2.774 1.267,-5.55 1.93,-8.317 2.151,-8.919 4.411,-17.818 7.011,-26.585 -0.241,4.759 -0.381,9.513 -0.462,14.264 1.137,-1.442 2.452,-2.814 4.063,-4.043 l 0.982,0.347 c 0.699,2.602 0.867,4.946 0.954,7.267 0.029,2.292 -0.065,4.544 -0.372,6.723 -0.271,2.196 -0.87,4.296 -1.728,6.347 -0.818,1.909 -1.685,3.821 -2.383,5.775 l -3.709,-0.803 -0.166,0.749 -1.02,4.594 5.594,1.477 1.1,-4.255 c 0.29,0.098 0.581,0.2 0.871,0.3 1.056,-3.073 2.13,-6.139 3.248,-9.188 3.127,-8.484 6.461,-16.917 10.409,-24.991 -1.08,4.991 -1.926,10.004 -2.642,15.029 0.107,-0.113 0.202,-0.231 0.312,-0.342 1.648,-1.735 3.583,-3.329 5.962,-4.553 l 0.921,0.521 c 0.273,2.691 0.075,4.997 -0.163,7.288 -0.071,0.564 -0.148,1.123 -0.249,1.668 -0.072,0.562 -0.181,1.107 -0.278,1.654 -0.098,0.547 -0.233,1.078 -0.348,1.615 -0.131,0.53 -0.282,1.049 -0.403,1.586 -0.55,2.114 -1.41,4.086 -2.509,5.991 -1.078,1.807 -2.188,3.63 -3.124,5.517 l -3.968,-1.297 -0.599,1.924 -1.159,3.726 5.462,1.843 1.171,-3.308 0.185,-0.529 c 1.627,-3.526 3.292,-7.031 5.041,-10.49 4.098,-8.062 8.506,-16.019 13.769,-23.28 -2.051,5.071 -3.703,10.242 -5.139,15.465 0.658,-0.628 1.347,-1.236 2.098,-1.797 1.919,-1.507 4.143,-2.794 6.718,-3.613 l 0.829,0.679 c -0.175,2.741 -0.745,4.98 -1.312,7.226 -0.154,0.549 -0.312,1.091 -0.493,1.614 -0.153,0.547 -0.336,1.075 -0.509,1.605 -0.175,0.529 -0.381,1.036 -0.569,1.553 -0.202,0.509 -0.43,0.996 -0.618,1.517 -0.825,2.029 -1.944,3.865 -3.275,5.628 -1.366,1.732 -2.754,3.495 -3.951,5.356 -0.27,0.424 -0.539,0.853 -0.809,1.278 l -3.68,-1.651 -1.142,2.748 -1.137,2.736 5.288,2.279 1.077,-2.315 1.392,-2.989 -1.113,-0.499 c 2.145,-3.653 4.354,-7.26 6.675,-10.79 2.545,-3.834 5.175,-7.601 7.988,-11.221 2.835,-3.604 5.819,-7.083 9.063,-10.246 -3.106,5.003 -5.638,10.253 -7.864,15.616 0.364,-0.299 0.728,-0.598 1.1,-0.886 0.963,-0.761 2.016,-1.452 3.132,-2.068 2.167,-1.272 4.644,-2.237 7.364,-2.673 l 0.719,0.812 c -0.625,2.744 -1.561,4.892 -2.459,7.079 -0.228,0.511 -0.461,1.013 -0.709,1.497 1.75,-1.955 3.54,-3.869 5.394,-5.715 3.372,-3.297 6.916,-6.406 10.703,-9.099 -3.065,3.503 -5.722,7.261 -8.166,11.13 -0.908,1.467 -1.771,2.958 -2.616,4.457 0.904,-0.65 1.848,-1.265 2.804,-1.847 1.127,-0.698 2.337,-1.313 3.61,-1.834 2.473,-1.102 5.239,-1.824 8.157,-1.97 l 0.606,0.918 c -0.559,1.402 -1.199,2.594 -1.847,3.735 -0.337,0.548 -0.658,1.111 -0.974,1.681 -0.321,0.561 -0.651,1.101 -0.987,1.627 -0.338,0.525 -0.676,1.04 -1.032,1.53 -0.334,0.52 -0.683,1.029 -1.026,1.533 -0.345,0.505 -0.714,0.979 -1.068,1.467 -0.364,0.479 -0.755,0.917 -1.102,1.419 -0.253,0.335 -0.524,0.652 -0.791,0.971 3.629,-2.934 7.336,-5.761 11.14,-8.426 4.059,-2.779 8.23,-5.374 12.541,-7.617 -3.712,3.148 -7.14,6.544 -10.406,10.068 -3.232,3.565 -6.303,7.252 -9.256,11.021 -1.22,1.581 -2.41,3.181 -3.591,4.786 0.173,-0.202 0.346,-0.403 0.522,-0.602 1.604,-1.827 3.399,-3.434 5.4,-4.809 1.998,-1.376 4.118,-2.619 6.371,-3.713 2.275,-1.072 4.644,-2.041 7.393,-2.604 l 0.662,0.733 c -0.85,2.666 -2.065,4.945 -3.408,7.082 -1.308,2.061 -2.762,3.961 -4.33,5.735 3.757,-2.112 7.47,-4.309 11.141,-6.593 4.06,-2.507 8.008,-5.187 11.936,-7.949 -3.201,3.565 -6.482,7.102 -9.913,10.492 -3.419,3.403 -6.92,6.745 -10.518,9.984 -3.401,3.081 -6.87,6.098 -10.401,9.053 l 1.239,-0.947 c 1.945,-1.46 3.77,-3.109 5.65,-4.671 1.881,-1.562 3.921,-2.87 6.133,-3.898 2.21,-1.033 4.52,-1.907 6.946,-2.594 2.436,-0.669 4.962,-1.194 7.781,-1.244 l 0.535,0.86 c -1.285,2.518 -2.865,4.562 -4.533,6.462 -0.005,0.004 -0.01,0.009 -0.014,0.014 7.083,-2.77 14.106,-5.714 21.013,-8.995 -7.845,6.113 -16.094,11.782 -24.465,17.247 -4.192,2.724 -8.421,5.402 -12.681,8.031 -2.013,1.238 -4.021,2.461 -6.041,3.677 2.692,-0.757 5.381,-1.498 8.07,-2.243 l 3.397,-2.063 c 2.071,-1.194 4.04,-2.611 6.087,-3.892 2.033,-1.301 4.233,-2.275 6.548,-2.952 2.337,-0.647 4.728,-1.141 7.232,-1.343 2.49,-0.216 5.078,-0.184 7.798,0.385 l 0.352,0.976 c -0.157,0.207 -0.322,0.386 -0.483,0.582 5.421,-1.4 10.848,-2.768 16.286,-4.073 -8.721,4.307 -17.344,8.768 -25.941,13.282 -5.669,2.983 -11.324,6 -16.964,9.031 1.28,-0.395 2.545,-0.774 3.832,-1.149 2.311,-0.677 4.623,-1.319 6.944,-1.932 2.661,-0.704 5.332,-1.359 8.008,-1.986 1.89,-0.76 3.873,-1.262 5.904,-1.524 0.565,-0.054 1.132,-0.101 1.699,-0.138 4.148,-0.825 8.311,-1.549 12.484,-2.114 4.734,-0.597 9.482,-1.004 14.2,-1.052 -4.588,1.127 -9.037,2.584 -13.412,4.207 -0.447,0.17 -0.888,0.349 -1.333,0.523 0.465,0.179 0.93,0.357 1.392,0.572 l 0.125,1.057 c -2.127,1.851 -4.209,3.06 -6.291,4.28 -2.085,1.113 -4.168,2.176 -6.289,2.979 -2.114,0.889 -4.305,1.413 -6.586,1.753 -2.287,0.287 -4.603,0.584 -6.862,1.072 -0.28,0.064 -0.561,0.129 -0.842,0.191 -1.17,0.632 -2.335,1.27 -3.493,1.916 0.593,-0.127 1.183,-0.25 1.782,-0.375 2.589,-0.537 5.178,-1.03 7.776,-1.472 5.195,-0.886 10.395,-1.655 15.63,-2.159 5.237,-0.487 10.474,-0.848 15.719,-0.787 5.238,0.075 10.474,0.452 15.537,1.489 -5.173,0.043 -10.241,0.759 -15.226,1.747 -1.109,0.221 -2.209,0.471 -3.307,0.73 0.503,0.178 1.005,0.372 1.505,0.614 1.311,0.633 2.591,1.312 3.798,2.199 l -0.118,1.082 c -1.355,0.717 -2.638,1.225 -3.888,1.689 -1.244,0.427 -2.49,0.954 -3.699,1.321 l -3.621,1.094 c -0.354,0.103 -0.708,0.194 -1.06,0.281 h 0.013 c 5.638,0.449 11.25,1.31 16.683,2.774 2.712,0.754 5.381,1.626 7.953,2.713 2.568,1.099 5.039,2.378 7.36,3.851 -2.57,-0.991 -5.195,-1.741 -7.843,-2.3 -2.653,-0.543 -5.338,-0.862 -8.015,-1.06 -3.368,-0.222 -6.733,-0.185 -10.086,0.012 2.104,0.717 4.154,1.626 6.092,2.772 2.563,1.554 4.96,3.458 6.788,5.969 l -0.453,0.879 c -3.058,0.045 -5.76,-0.078 -8.412,-0.184 -2.646,-0.105 -5.223,-0.189 -7.773,-0.349 -0.522,-0.03 -1.04,-0.069 -1.56,-0.11 1.449,0.455 2.891,0.934 4.324,1.439 2.951,1.026 5.863,2.176 8.716,3.451 2.855,1.263 5.651,2.663 8.341,4.243 5.389,3.104 10.392,6.975 14.281,11.684 -4.67,-3.944 -10.058,-6.726 -15.667,-8.745 -2.796,-1.031 -5.655,-1.873 -8.547,-2.574 -2.886,-0.715 -5.802,-1.301 -8.74,-1.763 -1.969,-0.321 -3.947,-0.575 -5.929,-0.804 1.337,0.231 2.676,0.477 4.013,0.776 1.577,0.342 3.127,0.836 4.643,1.405"
             style="fill:#110f0d;fill-opacity:1;fill-rule:nonzero;stroke:none"
             id="path13762" />
        </g>
      </g>
    </g>
  </g>
</svg>
