<?xml version="1.0" encoding="UTF-8" standalone="no"?>
<!-- Created with Inkscape (http://www.inkscape.org/) -->

<svg
   version="1.1"
   id="svg44476"
   width="1600"
   height="1600"
   viewBox="0 0 1600 1600"
   sodipodi:docname="octopus-cartoon-clipart-vector-pdv.svg"
   inkscape:version="1.2 (dc2aedaf03, 2022-05-15)"
   xmlns:inkscape="http://www.inkscape.org/namespaces/inkscape"
   xmlns:sodipodi="http://sodipodi.sourceforge.net/DTD/sodipodi-0.dtd"
   xmlns="http://www.w3.org/2000/svg"
   xmlns:svg="http://www.w3.org/2000/svg">
  <defs
     id="defs44480">
    <clipPath
       clipPathUnits="userSpaceOnUse"
       id="clipPath44492">
      <path
         d="M 0,1200 H 1200 V 0 H 0 Z"
         id="path44490" />
    </clipPath>
  </defs>
  <sodipodi:namedview
     id="namedview44478"
     pagecolor="#ffffff"
     bordercolor="#000000"
     borderopacity="0.25"
     inkscape:showpageshadow="2"
     inkscape:pageopacity="0.0"
     inkscape:pagecheckerboard="0"
     inkscape:deskcolor="#d1d1d1"
     showgrid="false"
     inkscape:zoom="0.523125"
     inkscape:cx="800"
     inkscape:cy="800.95579"
     inkscape:window-width="1920"
     inkscape:window-height="1017"
     inkscape:window-x="-8"
     inkscape:window-y="-8"
     inkscape:window-maximized="1"
     inkscape:current-layer="g44484">
    <inkscape:page
       x="0"
       y="0"
       id="page44482"
       width="1600"
       height="1600" />
  </sodipodi:namedview>
  <g
     id="g44484"
     inkscape:groupmode="layer"
     inkscape:label="Page 1"
     transform="matrix(1.3333333,0,0,-1.3333333,0,1600)">
    <g
       id="g44486">
      <g
         id="g44488"
         clip-path="url(#clipPath44492)">
        <g
           id="g44494"
           transform="translate(597.0791,168.9854)">
          <path
             d="m 0,0 c 231.694,0 420.664,80.313 420.664,178.783 0,98.468 -188.97,178.78 -420.664,178.78 -231.694,0 -420.664,-80.312 -420.664,-178.78 C -420.664,80.313 -231.694,0 0,0"
             style="fill:#e8ebed;fill-opacity:1;fill-rule:evenodd;stroke:none"
             id="path44496" />
        </g>
        <g
           id="g44498"
           transform="translate(249.7295,442.7559)">
          <path
             d="m 0,0 c 3.518,9.854 19.872,-1.25 28.702,24.288 8.832,25.533 -7.871,86.641 22.081,122.543 29.951,35.902 96.741,11.426 139.106,70.655 11.468,16.039 17.847,37.075 22.722,60.737 -12.315,9.597 -20.235,24.562 -20.235,41.388 0,23.69 15.708,43.708 37.281,50.21 9.569,39.928 39.717,101.292 103.009,143.667 125.051,83.731 293.48,103.424 400.396,31.889 106.912,-71.531 147.304,-296.826 16.56,-373.153 -106.513,-62.18 -298.977,18.737 -367.637,8.833 -26.935,-3.889 -9.671,-16.567 3.864,-25.394 51.858,-33.819 101.602,-51.992 146.28,-99.36 44.681,-47.368 48.498,-132.017 64.034,-170.02 15.539,-38.002 28.439,-16.654 29.81,-28.701 1.369,-12.051 -8.816,-19.061 -24.289,-19.873 -15.474,-0.816 -39.775,-8.639 -59.616,15.456 -19.844,24.093 -11.733,83.037 -48.578,115.922 -36.844,32.881 -104.513,44.894 -156.767,67.343 9.198,-32.014 22.589,-58.006 27.598,-96.048 5.01,-38.042 0.548,-101.678 2.208,-130.275 1.66,-28.595 11.394,-30.344 7.728,-40.848 -3.662,-10.501 -14.803,-14.259 -24.288,-6.624 -9.486,7.636 -11.386,16.5 -20.977,43.056 -9.586,26.558 -20.894,79.665 -36.43,115.922 -15.537,36.256 -37.538,66.975 -56.303,100.464 -29.076,-25.024 -66.762,-41.3 -87.22,-75.071 -20.457,-33.775 -14.837,-90.132 -29.809,-118.129 -14.971,-28.001 -38.838,-37.109 -55.199,-40.85 -16.36,-3.74 -24.748,6.51 -22.081,23.185 2.668,16.672 28.699,24.954 35.329,59.615 6.628,34.665 -6.466,104.45 3.313,142.418 9.779,37.968 35.329,50.786 52.991,76.179 C 120.702,86.845 109.782,98.539 94.941,81.692 80.102,64.85 66.362,14.828 51.887,-3.315 37.412,-21.453 23.643,-22.817 12.142,-22.081 0.639,-21.348 -3.52,-9.859 0,0"
             style="fill:#cc3300;fill-opacity:1;fill-rule:evenodd;stroke:none"
             id="path44500" />
        </g>
        <g
           id="g44502"
           transform="translate(1079.5098,809.7129)">
          <path
             d="m 0,0 c 9.04,-76.86 -12.935,-155.49 -80.158,-194.733 -106.513,-62.18 -298.978,18.737 -367.637,8.833 -14.252,-2.061 -16.127,-6.577 -12.728,-11.683 h -0.003 c -15.945,15.157 -6.366,31.133 11.613,38.864 48.558,20.882 100.921,7.48 141.757,1.62 C -92.423,-187.893 -9.5,-103.748 0,0"
             style="fill:#ba2f00;fill-opacity:1;fill-rule:evenodd;stroke:none"
             id="path44504" />
        </g>
        <g
           id="g44506"
           transform="translate(849.4473,280.3311)">
          <path
             d="m 0,0 c -15.511,-1.275 -38.63,-7.509 -57.649,15.59 -19.845,24.093 -11.734,83.037 -48.579,115.922 -36.843,32.881 -104.512,44.894 -156.767,67.342 -2.522,11.555 -5.044,23.103 -7.566,34.657 67.19,-29.213 125.328,-32.716 178.784,-82.821 C -61.678,122.479 -65.141,61.146 -47.083,24.055 -39.357,8.188 -21.208,-1.15 0,0"
             style="fill:#ed805c;fill-opacity:1;fill-rule:evenodd;stroke:none"
             id="path44508" />
        </g>
        <g
           id="g44510"
           transform="translate(383.3125,532.1797)">
          <path
             d="m 0,0 c -12.881,-2.579 -23.801,9.115 -38.642,-7.732 -14.839,-16.842 -28.579,-66.864 -43.054,-85.007 -14.475,-18.138 -28.244,-19.502 -39.745,-18.766 -2.528,0.159 -4.7,0.842 -6.516,1.911 19.25,-0.402 25.724,7.612 32.778,17.859 22.966,33.358 25.927,79.81 54.335,108.672 13.14,13.348 37.395,2.336 56.089,3.506 C 10.164,13.628 5.081,6.812 0,0"
             style="fill:#ed805c;fill-opacity:1;fill-rule:evenodd;stroke:none"
             id="path44512" />
        </g>
        <g
           id="g44514"
           transform="translate(613.7363,201.8213)">
          <path
             d="m 0,0 c -4.361,-1.173 -9.396,-0.165 -14.038,3.569 -9.485,7.637 -11.386,16.5 -20.977,43.057 -9.586,26.558 -20.894,79.665 -36.43,115.922 -15.536,36.256 -37.537,66.974 -56.303,100.464 -29.076,-25.025 -66.762,-41.3 -87.22,-75.072 -20.457,-33.774 -14.837,-90.131 -29.808,-118.128 -14.972,-28.001 -38.839,-37.11 -55.2,-40.85 -4.641,-1.059 -8.638,-0.993 -11.927,0.022 35.021,8.385 44.512,25.616 51.67,44.69 18.768,50.004 -1.763,86.215 27.601,130.827 23.464,35.645 70.473,67.344 107.64,88.32 27.603,-48.207 48.703,-75.255 69.003,-126.962 14.59,-37.169 23.19,-97.317 34.126,-135.722 C -18.466,18.201 -11.052,5.64 0,0"
             style="fill:#ed805c;fill-opacity:1;fill-rule:evenodd;stroke:none"
             id="path44516" />
        </g>
        <g
           id="g44518"
           transform="translate(606.0508,715.998)">
          <path
             d="m 0,0 c 33.139,0 60.169,27.027 60.169,60.168 0,33.142 -27.03,60.169 -60.169,60.169 -33.138,0 -60.168,-27.027 -60.168,-60.169 C -60.168,27.027 -33.138,0 0,0"
             style="fill:#ffeae3;fill-opacity:1;fill-rule:evenodd;stroke:none"
             id="path44520" />
        </g>
        <g
           id="g44522"
           transform="translate(595.5645,733.8223)">
          <path
             d="M 0,0 C 20.734,0 37.648,16.914 37.648,37.651 37.648,58.389 20.734,75.3 0,75.3 -20.737,75.3 -37.651,58.389 -37.651,37.651 -37.651,16.914 -20.737,0 0,0"
             style="fill:#824631;fill-opacity:1;fill-rule:evenodd;stroke:none"
             id="path44524" />
        </g>
        <g
           id="g44526"
           transform="translate(612.6758,770.9229)">
          <path
             d="m 0,0 c 11.098,0 20.146,9.052 20.146,20.149 0,11.098 -9.048,20.147 -20.146,20.147 -11.098,0 -20.146,-9.049 -20.146,-20.147 C -20.146,9.052 -11.098,0 0,0"
             style="fill:#ffeae3;fill-opacity:1;fill-rule:evenodd;stroke:none"
             id="path44528" />
        </g>
        <g
           id="g44530"
           transform="translate(911.4648,806.5547)">
          <path
             d="m 0,0 c -11.374,0 -20.595,-9.221 -20.595,-20.595 0,-11.377 9.221,-20.596 20.595,-20.596 11.374,0 20.595,9.219 20.595,20.596 C 20.595,-9.221 11.374,0 0,0 m 72.738,44.695 c 25.41,0 46.01,-20.597 46.01,-46.01 0,-25.411 -20.6,-46.01 -46.01,-46.01 -25.41,0 -46.01,20.599 -46.01,46.01 0,25.413 20.6,46.01 46.01,46.01 M 46.886,-82.381 c 13.551,0 24.537,-10.986 24.537,-24.54 0,-13.551 -10.986,-24.537 -24.537,-24.537 -13.554,0 -24.54,10.986 -24.54,24.537 0,13.554 10.986,24.54 24.54,24.54 M 9.203,-58.936 c 5.443,0 9.857,-4.417 9.857,-9.86 0,-5.445 -4.414,-9.859 -9.857,-9.859 -5.446,0 -9.859,4.414 -9.859,9.859 0,5.443 4.413,9.86 9.859,9.86 M -20.152,82.378 c 15.006,0 27.167,-12.162 27.167,-27.168 0,-15.005 -12.161,-27.167 -27.167,-27.167 -15.003,0 -27.167,12.162 -27.167,27.167 0,15.006 12.164,27.168 27.167,27.168 M -108.666,8.761 c 7.26,0 13.145,-5.882 13.145,-13.146 0,-7.258 -5.885,-13.145 -13.146,-13.145 -7.26,0 -13.146,5.887 -13.146,13.145 0,7.264 5.886,13.146 13.147,13.146 m 49.07,-34.177 c 23.958,0 43.38,-19.422 43.38,-43.38 0,-23.958 -19.422,-43.38 -43.38,-43.38 -23.957,0 -43.38,19.422 -43.38,43.38 0,23.958 19.423,43.38 43.38,43.38"
             style="fill:#e65929;fill-opacity:1;fill-rule:evenodd;stroke:none"
             id="path44532" />
        </g>
      </g>
    </g>
  </g>
</svg>
